G04 #@! TF.GenerationSoftware,KiCad,Pcbnew,(5.1.0)-1*
G04 #@! TF.CreationDate,2019-07-02T12:10:52+02:00*
G04 #@! TF.ProjectId,LCP,4c43502e-6b69-4636-9164-5f7063625858,rev?*
G04 #@! TF.SameCoordinates,PX60e4b00PY6350ce0*
G04 #@! TF.FileFunction,Soldermask,Top*
G04 #@! TF.FilePolarity,Negative*
%FSLAX46Y46*%
G04 Gerber Fmt 4.6, Leading zero omitted, Abs format (unit mm)*
G04 Created by KiCad (PCBNEW (5.1.0)-1) date 2019-07-02 12:10:52*
%MOMM*%
%LPD*%
G04 APERTURE LIST*
%ADD10C,0.100000*%
G04 APERTURE END LIST*
D10*
G36*
X4778747Y8429079D02*
G01*
X4858376Y8421236D01*
X5011627Y8374748D01*
X5011630Y8374747D01*
X5152863Y8299256D01*
X5276659Y8197659D01*
X5378256Y8073863D01*
X5453747Y7932630D01*
X5453748Y7932627D01*
X5500236Y7779376D01*
X5515933Y7620000D01*
X5500236Y7460624D01*
X5453748Y7307373D01*
X5453747Y7307370D01*
X5378256Y7166137D01*
X5276659Y7042341D01*
X5152863Y6940744D01*
X5011630Y6865253D01*
X5011627Y6865252D01*
X4858376Y6818764D01*
X4778747Y6810921D01*
X4738934Y6807000D01*
X3897066Y6807000D01*
X3857253Y6810921D01*
X3777624Y6818764D01*
X3624373Y6865252D01*
X3624370Y6865253D01*
X3483137Y6940744D01*
X3359341Y7042341D01*
X3257744Y7166137D01*
X3182253Y7307370D01*
X3182252Y7307373D01*
X3135764Y7460624D01*
X3120067Y7620000D01*
X3135764Y7779376D01*
X3182252Y7932627D01*
X3182253Y7932630D01*
X3257744Y8073863D01*
X3359341Y8197659D01*
X3483137Y8299256D01*
X3624370Y8374747D01*
X3624373Y8374748D01*
X3777624Y8421236D01*
X3857253Y8429079D01*
X3897066Y8433000D01*
X4738934Y8433000D01*
X4778747Y8429079D01*
X4778747Y8429079D01*
G37*
G36*
X30178747Y8429079D02*
G01*
X30258376Y8421236D01*
X30411627Y8374748D01*
X30411630Y8374747D01*
X30552863Y8299256D01*
X30676659Y8197659D01*
X30778256Y8073863D01*
X30853747Y7932630D01*
X30853748Y7932627D01*
X30900236Y7779376D01*
X30915933Y7620000D01*
X30900236Y7460624D01*
X30853748Y7307373D01*
X30853747Y7307370D01*
X30778256Y7166137D01*
X30676659Y7042341D01*
X30552863Y6940744D01*
X30411630Y6865253D01*
X30411627Y6865252D01*
X30258376Y6818764D01*
X30178747Y6810921D01*
X30138934Y6807000D01*
X29297066Y6807000D01*
X29257253Y6810921D01*
X29177624Y6818764D01*
X29024373Y6865252D01*
X29024370Y6865253D01*
X28883137Y6940744D01*
X28759341Y7042341D01*
X28657744Y7166137D01*
X28582253Y7307370D01*
X28582252Y7307373D01*
X28535764Y7460624D01*
X28520067Y7620000D01*
X28535764Y7779376D01*
X28582252Y7932627D01*
X28582253Y7932630D01*
X28657744Y8073863D01*
X28759341Y8197659D01*
X28883137Y8299256D01*
X29024370Y8374747D01*
X29024373Y8374748D01*
X29177624Y8421236D01*
X29257253Y8429079D01*
X29297066Y8433000D01*
X30138934Y8433000D01*
X30178747Y8429079D01*
X30178747Y8429079D01*
G37*
G36*
X36020747Y8429079D02*
G01*
X36100376Y8421236D01*
X36253627Y8374748D01*
X36253630Y8374747D01*
X36394863Y8299256D01*
X36518659Y8197659D01*
X36620256Y8073863D01*
X36695747Y7932630D01*
X36695748Y7932627D01*
X36742236Y7779376D01*
X36757933Y7620000D01*
X36742236Y7460624D01*
X36695748Y7307373D01*
X36695747Y7307370D01*
X36620256Y7166137D01*
X36518659Y7042341D01*
X36394863Y6940744D01*
X36253630Y6865253D01*
X36253627Y6865252D01*
X36100376Y6818764D01*
X36020747Y6810921D01*
X35980934Y6807000D01*
X35139066Y6807000D01*
X35099253Y6810921D01*
X35019624Y6818764D01*
X34866373Y6865252D01*
X34866370Y6865253D01*
X34725137Y6940744D01*
X34601341Y7042341D01*
X34499744Y7166137D01*
X34424253Y7307370D01*
X34424252Y7307373D01*
X34377764Y7460624D01*
X34362067Y7620000D01*
X34377764Y7779376D01*
X34424252Y7932627D01*
X34424253Y7932630D01*
X34499744Y8073863D01*
X34601341Y8197659D01*
X34725137Y8299256D01*
X34866370Y8374747D01*
X34866373Y8374748D01*
X35019624Y8421236D01*
X35099253Y8429079D01*
X35139066Y8433000D01*
X35980934Y8433000D01*
X36020747Y8429079D01*
X36020747Y8429079D01*
G37*
G36*
X41100747Y10969079D02*
G01*
X41180376Y10961236D01*
X41333627Y10914748D01*
X41333630Y10914747D01*
X41474863Y10839256D01*
X41598659Y10737659D01*
X41700256Y10613863D01*
X41775747Y10472630D01*
X41775748Y10472627D01*
X41822236Y10319376D01*
X41837933Y10160000D01*
X41822236Y10000624D01*
X41775748Y9847373D01*
X41775747Y9847370D01*
X41700256Y9706137D01*
X41598659Y9582341D01*
X41474863Y9480744D01*
X41333630Y9405253D01*
X41333627Y9405252D01*
X41180376Y9358764D01*
X41100747Y9350921D01*
X41060934Y9347000D01*
X40219066Y9347000D01*
X40179253Y9350921D01*
X40099624Y9358764D01*
X39946373Y9405252D01*
X39946370Y9405253D01*
X39805137Y9480744D01*
X39681341Y9582341D01*
X39579744Y9706137D01*
X39504253Y9847370D01*
X39504252Y9847373D01*
X39457764Y10000624D01*
X39442067Y10160000D01*
X39457764Y10319376D01*
X39504252Y10472627D01*
X39504253Y10472630D01*
X39579744Y10613863D01*
X39681341Y10737659D01*
X39805137Y10839256D01*
X39946370Y10914747D01*
X39946373Y10914748D01*
X40099624Y10961236D01*
X40179253Y10969079D01*
X40219066Y10973000D01*
X41060934Y10973000D01*
X41100747Y10969079D01*
X41100747Y10969079D01*
G37*
G36*
X4778747Y10969079D02*
G01*
X4858376Y10961236D01*
X5011627Y10914748D01*
X5011630Y10914747D01*
X5152863Y10839256D01*
X5276659Y10737659D01*
X5378256Y10613863D01*
X5453747Y10472630D01*
X5453748Y10472627D01*
X5500236Y10319376D01*
X5515933Y10160000D01*
X5500236Y10000624D01*
X5453748Y9847373D01*
X5453747Y9847370D01*
X5378256Y9706137D01*
X5276659Y9582341D01*
X5152863Y9480744D01*
X5011630Y9405253D01*
X5011627Y9405252D01*
X4858376Y9358764D01*
X4778747Y9350921D01*
X4738934Y9347000D01*
X3897066Y9347000D01*
X3857253Y9350921D01*
X3777624Y9358764D01*
X3624373Y9405252D01*
X3624370Y9405253D01*
X3483137Y9480744D01*
X3359341Y9582341D01*
X3257744Y9706137D01*
X3182253Y9847370D01*
X3182252Y9847373D01*
X3135764Y10000624D01*
X3120067Y10160000D01*
X3135764Y10319376D01*
X3182252Y10472627D01*
X3182253Y10472630D01*
X3257744Y10613863D01*
X3359341Y10737659D01*
X3483137Y10839256D01*
X3624370Y10914747D01*
X3624373Y10914748D01*
X3777624Y10961236D01*
X3857253Y10969079D01*
X3897066Y10973000D01*
X4738934Y10973000D01*
X4778747Y10969079D01*
X4778747Y10969079D01*
G37*
G36*
X30178747Y10969079D02*
G01*
X30258376Y10961236D01*
X30411627Y10914748D01*
X30411630Y10914747D01*
X30552863Y10839256D01*
X30676659Y10737659D01*
X30778256Y10613863D01*
X30853747Y10472630D01*
X30853748Y10472627D01*
X30900236Y10319376D01*
X30915933Y10160000D01*
X30900236Y10000624D01*
X30853748Y9847373D01*
X30853747Y9847370D01*
X30778256Y9706137D01*
X30676659Y9582341D01*
X30552863Y9480744D01*
X30411630Y9405253D01*
X30411627Y9405252D01*
X30258376Y9358764D01*
X30178747Y9350921D01*
X30138934Y9347000D01*
X29297066Y9347000D01*
X29257253Y9350921D01*
X29177624Y9358764D01*
X29024373Y9405252D01*
X29024370Y9405253D01*
X28883137Y9480744D01*
X28759341Y9582341D01*
X28657744Y9706137D01*
X28582253Y9847370D01*
X28582252Y9847373D01*
X28535764Y10000624D01*
X28520067Y10160000D01*
X28535764Y10319376D01*
X28582252Y10472627D01*
X28582253Y10472630D01*
X28657744Y10613863D01*
X28759341Y10737659D01*
X28883137Y10839256D01*
X29024370Y10914747D01*
X29024373Y10914748D01*
X29177624Y10961236D01*
X29257253Y10969079D01*
X29297066Y10973000D01*
X30138934Y10973000D01*
X30178747Y10969079D01*
X30178747Y10969079D01*
G37*
G36*
X46180747Y10969079D02*
G01*
X46260376Y10961236D01*
X46413627Y10914748D01*
X46413630Y10914747D01*
X46554863Y10839256D01*
X46678659Y10737659D01*
X46780256Y10613863D01*
X46855747Y10472630D01*
X46855748Y10472627D01*
X46902236Y10319376D01*
X46917933Y10160000D01*
X46902236Y10000624D01*
X46855748Y9847373D01*
X46855747Y9847370D01*
X46780256Y9706137D01*
X46678659Y9582341D01*
X46554863Y9480744D01*
X46413630Y9405253D01*
X46413627Y9405252D01*
X46260376Y9358764D01*
X46180747Y9350921D01*
X46140934Y9347000D01*
X45299066Y9347000D01*
X45259253Y9350921D01*
X45179624Y9358764D01*
X45026373Y9405252D01*
X45026370Y9405253D01*
X44885137Y9480744D01*
X44761341Y9582341D01*
X44659744Y9706137D01*
X44584253Y9847370D01*
X44584252Y9847373D01*
X44537764Y10000624D01*
X44522067Y10160000D01*
X44537764Y10319376D01*
X44584252Y10472627D01*
X44584253Y10472630D01*
X44659744Y10613863D01*
X44761341Y10737659D01*
X44885137Y10839256D01*
X45026370Y10914747D01*
X45026373Y10914748D01*
X45179624Y10961236D01*
X45259253Y10969079D01*
X45299066Y10973000D01*
X46140934Y10973000D01*
X46180747Y10969079D01*
X46180747Y10969079D01*
G37*
G36*
X41100747Y13509079D02*
G01*
X41180376Y13501236D01*
X41333627Y13454748D01*
X41333630Y13454747D01*
X41474863Y13379256D01*
X41598659Y13277659D01*
X41700256Y13153863D01*
X41775747Y13012630D01*
X41775748Y13012627D01*
X41822236Y12859376D01*
X41837933Y12700000D01*
X41822236Y12540624D01*
X41775748Y12387373D01*
X41775747Y12387370D01*
X41700256Y12246137D01*
X41598659Y12122341D01*
X41474863Y12020744D01*
X41333630Y11945253D01*
X41333627Y11945252D01*
X41180376Y11898764D01*
X41100747Y11890921D01*
X41060934Y11887000D01*
X40219066Y11887000D01*
X40179253Y11890921D01*
X40099624Y11898764D01*
X39946373Y11945252D01*
X39946370Y11945253D01*
X39805137Y12020744D01*
X39681341Y12122341D01*
X39579744Y12246137D01*
X39504253Y12387370D01*
X39504252Y12387373D01*
X39457764Y12540624D01*
X39442067Y12700000D01*
X39457764Y12859376D01*
X39504252Y13012627D01*
X39504253Y13012630D01*
X39579744Y13153863D01*
X39681341Y13277659D01*
X39805137Y13379256D01*
X39946370Y13454747D01*
X39946373Y13454748D01*
X40099624Y13501236D01*
X40179253Y13509079D01*
X40219066Y13513000D01*
X41060934Y13513000D01*
X41100747Y13509079D01*
X41100747Y13509079D01*
G37*
G36*
X30178747Y13509079D02*
G01*
X30258376Y13501236D01*
X30411627Y13454748D01*
X30411630Y13454747D01*
X30552863Y13379256D01*
X30676659Y13277659D01*
X30778256Y13153863D01*
X30853747Y13012630D01*
X30853748Y13012627D01*
X30900236Y12859376D01*
X30915933Y12700000D01*
X30900236Y12540624D01*
X30853748Y12387373D01*
X30853747Y12387370D01*
X30778256Y12246137D01*
X30676659Y12122341D01*
X30552863Y12020744D01*
X30411630Y11945253D01*
X30411627Y11945252D01*
X30258376Y11898764D01*
X30178747Y11890921D01*
X30138934Y11887000D01*
X29297066Y11887000D01*
X29257253Y11890921D01*
X29177624Y11898764D01*
X29024373Y11945252D01*
X29024370Y11945253D01*
X28883137Y12020744D01*
X28759341Y12122341D01*
X28657744Y12246137D01*
X28582253Y12387370D01*
X28582252Y12387373D01*
X28535764Y12540624D01*
X28520067Y12700000D01*
X28535764Y12859376D01*
X28582252Y13012627D01*
X28582253Y13012630D01*
X28657744Y13153863D01*
X28759341Y13277659D01*
X28883137Y13379256D01*
X29024370Y13454747D01*
X29024373Y13454748D01*
X29177624Y13501236D01*
X29257253Y13509079D01*
X29297066Y13513000D01*
X30138934Y13513000D01*
X30178747Y13509079D01*
X30178747Y13509079D01*
G37*
G36*
X4778747Y13509079D02*
G01*
X4858376Y13501236D01*
X5011627Y13454748D01*
X5011630Y13454747D01*
X5152863Y13379256D01*
X5276659Y13277659D01*
X5378256Y13153863D01*
X5453747Y13012630D01*
X5453748Y13012627D01*
X5500236Y12859376D01*
X5515933Y12700000D01*
X5500236Y12540624D01*
X5453748Y12387373D01*
X5453747Y12387370D01*
X5378256Y12246137D01*
X5276659Y12122341D01*
X5152863Y12020744D01*
X5011630Y11945253D01*
X5011627Y11945252D01*
X4858376Y11898764D01*
X4778747Y11890921D01*
X4738934Y11887000D01*
X3897066Y11887000D01*
X3857253Y11890921D01*
X3777624Y11898764D01*
X3624373Y11945252D01*
X3624370Y11945253D01*
X3483137Y12020744D01*
X3359341Y12122341D01*
X3257744Y12246137D01*
X3182253Y12387370D01*
X3182252Y12387373D01*
X3135764Y12540624D01*
X3120067Y12700000D01*
X3135764Y12859376D01*
X3182252Y13012627D01*
X3182253Y13012630D01*
X3257744Y13153863D01*
X3359341Y13277659D01*
X3483137Y13379256D01*
X3624370Y13454747D01*
X3624373Y13454748D01*
X3777624Y13501236D01*
X3857253Y13509079D01*
X3897066Y13513000D01*
X4738934Y13513000D01*
X4778747Y13509079D01*
X4778747Y13509079D01*
G37*
G36*
X41100747Y16049079D02*
G01*
X41180376Y16041236D01*
X41333627Y15994748D01*
X41333630Y15994747D01*
X41474863Y15919256D01*
X41598659Y15817659D01*
X41700256Y15693863D01*
X41775747Y15552630D01*
X41775748Y15552627D01*
X41822236Y15399376D01*
X41837933Y15240000D01*
X41822236Y15080624D01*
X41775748Y14927373D01*
X41775747Y14927370D01*
X41700256Y14786137D01*
X41598659Y14662341D01*
X41474863Y14560744D01*
X41333630Y14485253D01*
X41333627Y14485252D01*
X41180376Y14438764D01*
X41100747Y14430921D01*
X41060934Y14427000D01*
X40219066Y14427000D01*
X40179253Y14430921D01*
X40099624Y14438764D01*
X39946373Y14485252D01*
X39946370Y14485253D01*
X39805137Y14560744D01*
X39681341Y14662341D01*
X39579744Y14786137D01*
X39504253Y14927370D01*
X39504252Y14927373D01*
X39457764Y15080624D01*
X39442067Y15240000D01*
X39457764Y15399376D01*
X39504252Y15552627D01*
X39504253Y15552630D01*
X39579744Y15693863D01*
X39681341Y15817659D01*
X39805137Y15919256D01*
X39946370Y15994747D01*
X39946373Y15994748D01*
X40099624Y16041236D01*
X40179253Y16049079D01*
X40219066Y16053000D01*
X41060934Y16053000D01*
X41100747Y16049079D01*
X41100747Y16049079D01*
G37*
G36*
X30178747Y16049079D02*
G01*
X30258376Y16041236D01*
X30411627Y15994748D01*
X30411630Y15994747D01*
X30552863Y15919256D01*
X30676659Y15817659D01*
X30778256Y15693863D01*
X30853747Y15552630D01*
X30853748Y15552627D01*
X30900236Y15399376D01*
X30915933Y15240000D01*
X30900236Y15080624D01*
X30853748Y14927373D01*
X30853747Y14927370D01*
X30778256Y14786137D01*
X30676659Y14662341D01*
X30552863Y14560744D01*
X30411630Y14485253D01*
X30411627Y14485252D01*
X30258376Y14438764D01*
X30178747Y14430921D01*
X30138934Y14427000D01*
X29297066Y14427000D01*
X29257253Y14430921D01*
X29177624Y14438764D01*
X29024373Y14485252D01*
X29024370Y14485253D01*
X28883137Y14560744D01*
X28759341Y14662341D01*
X28657744Y14786137D01*
X28582253Y14927370D01*
X28582252Y14927373D01*
X28535764Y15080624D01*
X28520067Y15240000D01*
X28535764Y15399376D01*
X28582252Y15552627D01*
X28582253Y15552630D01*
X28657744Y15693863D01*
X28759341Y15817659D01*
X28883137Y15919256D01*
X29024370Y15994747D01*
X29024373Y15994748D01*
X29177624Y16041236D01*
X29257253Y16049079D01*
X29297066Y16053000D01*
X30138934Y16053000D01*
X30178747Y16049079D01*
X30178747Y16049079D01*
G37*
G36*
X4778747Y16049079D02*
G01*
X4858376Y16041236D01*
X5011627Y15994748D01*
X5011630Y15994747D01*
X5152863Y15919256D01*
X5276659Y15817659D01*
X5378256Y15693863D01*
X5453747Y15552630D01*
X5453748Y15552627D01*
X5500236Y15399376D01*
X5515933Y15240000D01*
X5500236Y15080624D01*
X5453748Y14927373D01*
X5453747Y14927370D01*
X5378256Y14786137D01*
X5276659Y14662341D01*
X5152863Y14560744D01*
X5011630Y14485253D01*
X5011627Y14485252D01*
X4858376Y14438764D01*
X4778747Y14430921D01*
X4738934Y14427000D01*
X3897066Y14427000D01*
X3857253Y14430921D01*
X3777624Y14438764D01*
X3624373Y14485252D01*
X3624370Y14485253D01*
X3483137Y14560744D01*
X3359341Y14662341D01*
X3257744Y14786137D01*
X3182253Y14927370D01*
X3182252Y14927373D01*
X3135764Y15080624D01*
X3120067Y15240000D01*
X3135764Y15399376D01*
X3182252Y15552627D01*
X3182253Y15552630D01*
X3257744Y15693863D01*
X3359341Y15817659D01*
X3483137Y15919256D01*
X3624370Y15994747D01*
X3624373Y15994748D01*
X3777624Y16041236D01*
X3857253Y16049079D01*
X3897066Y16053000D01*
X4738934Y16053000D01*
X4778747Y16049079D01*
X4778747Y16049079D01*
G37*
G36*
X4778747Y18589079D02*
G01*
X4858376Y18581236D01*
X5011627Y18534748D01*
X5011630Y18534747D01*
X5152863Y18459256D01*
X5276659Y18357659D01*
X5378256Y18233863D01*
X5453747Y18092630D01*
X5453748Y18092627D01*
X5500236Y17939376D01*
X5515933Y17780000D01*
X5500236Y17620624D01*
X5453748Y17467373D01*
X5453747Y17467370D01*
X5378256Y17326137D01*
X5276659Y17202341D01*
X5152863Y17100744D01*
X5011630Y17025253D01*
X5011627Y17025252D01*
X4858376Y16978764D01*
X4778747Y16970921D01*
X4738934Y16967000D01*
X3897066Y16967000D01*
X3857253Y16970921D01*
X3777624Y16978764D01*
X3624373Y17025252D01*
X3624370Y17025253D01*
X3483137Y17100744D01*
X3359341Y17202341D01*
X3257744Y17326137D01*
X3182253Y17467370D01*
X3182252Y17467373D01*
X3135764Y17620624D01*
X3120067Y17780000D01*
X3135764Y17939376D01*
X3182252Y18092627D01*
X3182253Y18092630D01*
X3257744Y18233863D01*
X3359341Y18357659D01*
X3483137Y18459256D01*
X3624370Y18534747D01*
X3624373Y18534748D01*
X3777624Y18581236D01*
X3857253Y18589079D01*
X3897066Y18593000D01*
X4738934Y18593000D01*
X4778747Y18589079D01*
X4778747Y18589079D01*
G37*
G36*
X41100747Y18589079D02*
G01*
X41180376Y18581236D01*
X41333627Y18534748D01*
X41333630Y18534747D01*
X41474863Y18459256D01*
X41598659Y18357659D01*
X41700256Y18233863D01*
X41775747Y18092630D01*
X41775748Y18092627D01*
X41822236Y17939376D01*
X41837933Y17780000D01*
X41822236Y17620624D01*
X41775748Y17467373D01*
X41775747Y17467370D01*
X41700256Y17326137D01*
X41598659Y17202341D01*
X41474863Y17100744D01*
X41333630Y17025253D01*
X41333627Y17025252D01*
X41180376Y16978764D01*
X41100747Y16970921D01*
X41060934Y16967000D01*
X40219066Y16967000D01*
X40179253Y16970921D01*
X40099624Y16978764D01*
X39946373Y17025252D01*
X39946370Y17025253D01*
X39805137Y17100744D01*
X39681341Y17202341D01*
X39579744Y17326137D01*
X39504253Y17467370D01*
X39504252Y17467373D01*
X39457764Y17620624D01*
X39442067Y17780000D01*
X39457764Y17939376D01*
X39504252Y18092627D01*
X39504253Y18092630D01*
X39579744Y18233863D01*
X39681341Y18357659D01*
X39805137Y18459256D01*
X39946370Y18534747D01*
X39946373Y18534748D01*
X40099624Y18581236D01*
X40179253Y18589079D01*
X40219066Y18593000D01*
X41060934Y18593000D01*
X41100747Y18589079D01*
X41100747Y18589079D01*
G37*
G36*
X30178747Y18589079D02*
G01*
X30258376Y18581236D01*
X30411627Y18534748D01*
X30411630Y18534747D01*
X30552863Y18459256D01*
X30676659Y18357659D01*
X30778256Y18233863D01*
X30853747Y18092630D01*
X30853748Y18092627D01*
X30900236Y17939376D01*
X30915933Y17780000D01*
X30900236Y17620624D01*
X30853748Y17467373D01*
X30853747Y17467370D01*
X30778256Y17326137D01*
X30676659Y17202341D01*
X30552863Y17100744D01*
X30411630Y17025253D01*
X30411627Y17025252D01*
X30258376Y16978764D01*
X30178747Y16970921D01*
X30138934Y16967000D01*
X29297066Y16967000D01*
X29257253Y16970921D01*
X29177624Y16978764D01*
X29024373Y17025252D01*
X29024370Y17025253D01*
X28883137Y17100744D01*
X28759341Y17202341D01*
X28657744Y17326137D01*
X28582253Y17467370D01*
X28582252Y17467373D01*
X28535764Y17620624D01*
X28520067Y17780000D01*
X28535764Y17939376D01*
X28582252Y18092627D01*
X28582253Y18092630D01*
X28657744Y18233863D01*
X28759341Y18357659D01*
X28883137Y18459256D01*
X29024370Y18534747D01*
X29024373Y18534748D01*
X29177624Y18581236D01*
X29257253Y18589079D01*
X29297066Y18593000D01*
X30138934Y18593000D01*
X30178747Y18589079D01*
X30178747Y18589079D01*
G37*
G36*
X41100747Y21129079D02*
G01*
X41180376Y21121236D01*
X41333627Y21074748D01*
X41333630Y21074747D01*
X41474863Y20999256D01*
X41598659Y20897659D01*
X41700256Y20773863D01*
X41775747Y20632630D01*
X41775748Y20632627D01*
X41822236Y20479376D01*
X41837933Y20320000D01*
X41822236Y20160624D01*
X41775748Y20007373D01*
X41775747Y20007370D01*
X41700256Y19866137D01*
X41598659Y19742341D01*
X41474863Y19640744D01*
X41333630Y19565253D01*
X41333627Y19565252D01*
X41180376Y19518764D01*
X41100747Y19510921D01*
X41060934Y19507000D01*
X40219066Y19507000D01*
X40179253Y19510921D01*
X40099624Y19518764D01*
X39946373Y19565252D01*
X39946370Y19565253D01*
X39805137Y19640744D01*
X39681341Y19742341D01*
X39579744Y19866137D01*
X39504253Y20007370D01*
X39504252Y20007373D01*
X39457764Y20160624D01*
X39442067Y20320000D01*
X39457764Y20479376D01*
X39504252Y20632627D01*
X39504253Y20632630D01*
X39579744Y20773863D01*
X39681341Y20897659D01*
X39805137Y20999256D01*
X39946370Y21074747D01*
X39946373Y21074748D01*
X40099624Y21121236D01*
X40179253Y21129079D01*
X40219066Y21133000D01*
X41060934Y21133000D01*
X41100747Y21129079D01*
X41100747Y21129079D01*
G37*
G36*
X4778747Y21129079D02*
G01*
X4858376Y21121236D01*
X5011627Y21074748D01*
X5011630Y21074747D01*
X5152863Y20999256D01*
X5276659Y20897659D01*
X5378256Y20773863D01*
X5453747Y20632630D01*
X5453748Y20632627D01*
X5500236Y20479376D01*
X5515933Y20320000D01*
X5500236Y20160624D01*
X5453748Y20007373D01*
X5453747Y20007370D01*
X5378256Y19866137D01*
X5276659Y19742341D01*
X5152863Y19640744D01*
X5011630Y19565253D01*
X5011627Y19565252D01*
X4858376Y19518764D01*
X4778747Y19510921D01*
X4738934Y19507000D01*
X3897066Y19507000D01*
X3857253Y19510921D01*
X3777624Y19518764D01*
X3624373Y19565252D01*
X3624370Y19565253D01*
X3483137Y19640744D01*
X3359341Y19742341D01*
X3257744Y19866137D01*
X3182253Y20007370D01*
X3182252Y20007373D01*
X3135764Y20160624D01*
X3120067Y20320000D01*
X3135764Y20479376D01*
X3182252Y20632627D01*
X3182253Y20632630D01*
X3257744Y20773863D01*
X3359341Y20897659D01*
X3483137Y20999256D01*
X3624370Y21074747D01*
X3624373Y21074748D01*
X3777624Y21121236D01*
X3857253Y21129079D01*
X3897066Y21133000D01*
X4738934Y21133000D01*
X4778747Y21129079D01*
X4778747Y21129079D01*
G37*
G36*
X30178747Y21129079D02*
G01*
X30258376Y21121236D01*
X30411627Y21074748D01*
X30411630Y21074747D01*
X30552863Y20999256D01*
X30676659Y20897659D01*
X30778256Y20773863D01*
X30853747Y20632630D01*
X30853748Y20632627D01*
X30900236Y20479376D01*
X30915933Y20320000D01*
X30900236Y20160624D01*
X30853748Y20007373D01*
X30853747Y20007370D01*
X30778256Y19866137D01*
X30676659Y19742341D01*
X30552863Y19640744D01*
X30411630Y19565253D01*
X30411627Y19565252D01*
X30258376Y19518764D01*
X30178747Y19510921D01*
X30138934Y19507000D01*
X29297066Y19507000D01*
X29257253Y19510921D01*
X29177624Y19518764D01*
X29024373Y19565252D01*
X29024370Y19565253D01*
X28883137Y19640744D01*
X28759341Y19742341D01*
X28657744Y19866137D01*
X28582253Y20007370D01*
X28582252Y20007373D01*
X28535764Y20160624D01*
X28520067Y20320000D01*
X28535764Y20479376D01*
X28582252Y20632627D01*
X28582253Y20632630D01*
X28657744Y20773863D01*
X28759341Y20897659D01*
X28883137Y20999256D01*
X29024370Y21074747D01*
X29024373Y21074748D01*
X29177624Y21121236D01*
X29257253Y21129079D01*
X29297066Y21133000D01*
X30138934Y21133000D01*
X30178747Y21129079D01*
X30178747Y21129079D01*
G37*
G36*
X36020747Y23669079D02*
G01*
X36100376Y23661236D01*
X36253627Y23614748D01*
X36253630Y23614747D01*
X36394863Y23539256D01*
X36518659Y23437659D01*
X36620256Y23313863D01*
X36695747Y23172630D01*
X36695748Y23172627D01*
X36742236Y23019376D01*
X36757933Y22860000D01*
X36742236Y22700624D01*
X36695748Y22547373D01*
X36695747Y22547370D01*
X36620256Y22406137D01*
X36518659Y22282341D01*
X36394863Y22180744D01*
X36253630Y22105253D01*
X36253627Y22105252D01*
X36100376Y22058764D01*
X36020747Y22050921D01*
X35980934Y22047000D01*
X35139066Y22047000D01*
X35099253Y22050921D01*
X35019624Y22058764D01*
X34866373Y22105252D01*
X34866370Y22105253D01*
X34725137Y22180744D01*
X34601341Y22282341D01*
X34499744Y22406137D01*
X34424253Y22547370D01*
X34424252Y22547373D01*
X34377764Y22700624D01*
X34362067Y22860000D01*
X34377764Y23019376D01*
X34424252Y23172627D01*
X34424253Y23172630D01*
X34499744Y23313863D01*
X34601341Y23437659D01*
X34725137Y23539256D01*
X34866370Y23614747D01*
X34866373Y23614748D01*
X35019624Y23661236D01*
X35099253Y23669079D01*
X35139066Y23673000D01*
X35980934Y23673000D01*
X36020747Y23669079D01*
X36020747Y23669079D01*
G37*
G36*
X4778747Y23669079D02*
G01*
X4858376Y23661236D01*
X5011627Y23614748D01*
X5011630Y23614747D01*
X5152863Y23539256D01*
X5276659Y23437659D01*
X5378256Y23313863D01*
X5453747Y23172630D01*
X5453748Y23172627D01*
X5500236Y23019376D01*
X5515933Y22860000D01*
X5500236Y22700624D01*
X5453748Y22547373D01*
X5453747Y22547370D01*
X5378256Y22406137D01*
X5276659Y22282341D01*
X5152863Y22180744D01*
X5011630Y22105253D01*
X5011627Y22105252D01*
X4858376Y22058764D01*
X4778747Y22050921D01*
X4738934Y22047000D01*
X3897066Y22047000D01*
X3857253Y22050921D01*
X3777624Y22058764D01*
X3624373Y22105252D01*
X3624370Y22105253D01*
X3483137Y22180744D01*
X3359341Y22282341D01*
X3257744Y22406137D01*
X3182253Y22547370D01*
X3182252Y22547373D01*
X3135764Y22700624D01*
X3120067Y22860000D01*
X3135764Y23019376D01*
X3182252Y23172627D01*
X3182253Y23172630D01*
X3257744Y23313863D01*
X3359341Y23437659D01*
X3483137Y23539256D01*
X3624370Y23614747D01*
X3624373Y23614748D01*
X3777624Y23661236D01*
X3857253Y23669079D01*
X3897066Y23673000D01*
X4738934Y23673000D01*
X4778747Y23669079D01*
X4778747Y23669079D01*
G37*
G36*
X30178747Y23669079D02*
G01*
X30258376Y23661236D01*
X30411627Y23614748D01*
X30411630Y23614747D01*
X30552863Y23539256D01*
X30676659Y23437659D01*
X30778256Y23313863D01*
X30853747Y23172630D01*
X30853748Y23172627D01*
X30900236Y23019376D01*
X30915933Y22860000D01*
X30900236Y22700624D01*
X30853748Y22547373D01*
X30853747Y22547370D01*
X30778256Y22406137D01*
X30676659Y22282341D01*
X30552863Y22180744D01*
X30411630Y22105253D01*
X30411627Y22105252D01*
X30258376Y22058764D01*
X30178747Y22050921D01*
X30138934Y22047000D01*
X29297066Y22047000D01*
X29257253Y22050921D01*
X29177624Y22058764D01*
X29024373Y22105252D01*
X29024370Y22105253D01*
X28883137Y22180744D01*
X28759341Y22282341D01*
X28657744Y22406137D01*
X28582253Y22547370D01*
X28582252Y22547373D01*
X28535764Y22700624D01*
X28520067Y22860000D01*
X28535764Y23019376D01*
X28582252Y23172627D01*
X28582253Y23172630D01*
X28657744Y23313863D01*
X28759341Y23437659D01*
X28883137Y23539256D01*
X29024370Y23614747D01*
X29024373Y23614748D01*
X29177624Y23661236D01*
X29257253Y23669079D01*
X29297066Y23673000D01*
X30138934Y23673000D01*
X30178747Y23669079D01*
X30178747Y23669079D01*
G37*
G36*
X48720747Y26209079D02*
G01*
X48800376Y26201236D01*
X48953627Y26154748D01*
X48953630Y26154747D01*
X49094863Y26079256D01*
X49218659Y25977659D01*
X49320256Y25853863D01*
X49395747Y25712630D01*
X49395748Y25712627D01*
X49442236Y25559376D01*
X49457933Y25400000D01*
X49442236Y25240624D01*
X49395748Y25087373D01*
X49395747Y25087370D01*
X49320256Y24946137D01*
X49218659Y24822341D01*
X49094863Y24720744D01*
X48953630Y24645253D01*
X48953627Y24645252D01*
X48800376Y24598764D01*
X48720747Y24590921D01*
X48680934Y24587000D01*
X47839066Y24587000D01*
X47799253Y24590921D01*
X47719624Y24598764D01*
X47566373Y24645252D01*
X47566370Y24645253D01*
X47425137Y24720744D01*
X47301341Y24822341D01*
X47199744Y24946137D01*
X47124253Y25087370D01*
X47124252Y25087373D01*
X47077764Y25240624D01*
X47062067Y25400000D01*
X47077764Y25559376D01*
X47124252Y25712627D01*
X47124253Y25712630D01*
X47199744Y25853863D01*
X47301341Y25977659D01*
X47425137Y26079256D01*
X47566370Y26154747D01*
X47566373Y26154748D01*
X47719624Y26201236D01*
X47799253Y26209079D01*
X47839066Y26213000D01*
X48680934Y26213000D01*
X48720747Y26209079D01*
X48720747Y26209079D01*
G37*
G36*
X30178747Y26209079D02*
G01*
X30258376Y26201236D01*
X30411627Y26154748D01*
X30411630Y26154747D01*
X30552863Y26079256D01*
X30676659Y25977659D01*
X30778256Y25853863D01*
X30853747Y25712630D01*
X30853748Y25712627D01*
X30900236Y25559376D01*
X30915933Y25400000D01*
X30900236Y25240624D01*
X30853748Y25087373D01*
X30853747Y25087370D01*
X30778256Y24946137D01*
X30676659Y24822341D01*
X30552863Y24720744D01*
X30411630Y24645253D01*
X30411627Y24645252D01*
X30258376Y24598764D01*
X30178747Y24590921D01*
X30138934Y24587000D01*
X29297066Y24587000D01*
X29257253Y24590921D01*
X29177624Y24598764D01*
X29024373Y24645252D01*
X29024370Y24645253D01*
X28883137Y24720744D01*
X28759341Y24822341D01*
X28657744Y24946137D01*
X28582253Y25087370D01*
X28582252Y25087373D01*
X28535764Y25240624D01*
X28520067Y25400000D01*
X28535764Y25559376D01*
X28582252Y25712627D01*
X28582253Y25712630D01*
X28657744Y25853863D01*
X28759341Y25977659D01*
X28883137Y26079256D01*
X29024370Y26154747D01*
X29024373Y26154748D01*
X29177624Y26201236D01*
X29257253Y26209079D01*
X29297066Y26213000D01*
X30138934Y26213000D01*
X30178747Y26209079D01*
X30178747Y26209079D01*
G37*
G36*
X36020747Y26209079D02*
G01*
X36100376Y26201236D01*
X36253627Y26154748D01*
X36253630Y26154747D01*
X36394863Y26079256D01*
X36518659Y25977659D01*
X36620256Y25853863D01*
X36695747Y25712630D01*
X36695748Y25712627D01*
X36742236Y25559376D01*
X36757933Y25400000D01*
X36742236Y25240624D01*
X36695748Y25087373D01*
X36695747Y25087370D01*
X36620256Y24946137D01*
X36518659Y24822341D01*
X36394863Y24720744D01*
X36253630Y24645253D01*
X36253627Y24645252D01*
X36100376Y24598764D01*
X36020747Y24590921D01*
X35980934Y24587000D01*
X35139066Y24587000D01*
X35099253Y24590921D01*
X35019624Y24598764D01*
X34866373Y24645252D01*
X34866370Y24645253D01*
X34725137Y24720744D01*
X34601341Y24822341D01*
X34499744Y24946137D01*
X34424253Y25087370D01*
X34424252Y25087373D01*
X34377764Y25240624D01*
X34362067Y25400000D01*
X34377764Y25559376D01*
X34424252Y25712627D01*
X34424253Y25712630D01*
X34499744Y25853863D01*
X34601341Y25977659D01*
X34725137Y26079256D01*
X34866370Y26154747D01*
X34866373Y26154748D01*
X35019624Y26201236D01*
X35099253Y26209079D01*
X35139066Y26213000D01*
X35980934Y26213000D01*
X36020747Y26209079D01*
X36020747Y26209079D01*
G37*
G36*
X4778747Y26209079D02*
G01*
X4858376Y26201236D01*
X5011627Y26154748D01*
X5011630Y26154747D01*
X5152863Y26079256D01*
X5276659Y25977659D01*
X5378256Y25853863D01*
X5453747Y25712630D01*
X5453748Y25712627D01*
X5500236Y25559376D01*
X5515933Y25400000D01*
X5500236Y25240624D01*
X5453748Y25087373D01*
X5453747Y25087370D01*
X5378256Y24946137D01*
X5276659Y24822341D01*
X5152863Y24720744D01*
X5011630Y24645253D01*
X5011627Y24645252D01*
X4858376Y24598764D01*
X4778747Y24590921D01*
X4738934Y24587000D01*
X3897066Y24587000D01*
X3857253Y24590921D01*
X3777624Y24598764D01*
X3624373Y24645252D01*
X3624370Y24645253D01*
X3483137Y24720744D01*
X3359341Y24822341D01*
X3257744Y24946137D01*
X3182253Y25087370D01*
X3182252Y25087373D01*
X3135764Y25240624D01*
X3120067Y25400000D01*
X3135764Y25559376D01*
X3182252Y25712627D01*
X3182253Y25712630D01*
X3257744Y25853863D01*
X3359341Y25977659D01*
X3483137Y26079256D01*
X3624370Y26154747D01*
X3624373Y26154748D01*
X3777624Y26201236D01*
X3857253Y26209079D01*
X3897066Y26213000D01*
X4738934Y26213000D01*
X4778747Y26209079D01*
X4778747Y26209079D01*
G37*
G36*
X4778747Y28749079D02*
G01*
X4858376Y28741236D01*
X5011627Y28694748D01*
X5011630Y28694747D01*
X5152863Y28619256D01*
X5276659Y28517659D01*
X5378256Y28393863D01*
X5453747Y28252630D01*
X5453748Y28252627D01*
X5500236Y28099376D01*
X5515933Y27940000D01*
X5500236Y27780624D01*
X5453748Y27627373D01*
X5453747Y27627370D01*
X5378256Y27486137D01*
X5276659Y27362341D01*
X5152863Y27260744D01*
X5011630Y27185253D01*
X5011627Y27185252D01*
X4858376Y27138764D01*
X4778747Y27130921D01*
X4738934Y27127000D01*
X3897066Y27127000D01*
X3857253Y27130921D01*
X3777624Y27138764D01*
X3624373Y27185252D01*
X3624370Y27185253D01*
X3483137Y27260744D01*
X3359341Y27362341D01*
X3257744Y27486137D01*
X3182253Y27627370D01*
X3182252Y27627373D01*
X3135764Y27780624D01*
X3120067Y27940000D01*
X3135764Y28099376D01*
X3182252Y28252627D01*
X3182253Y28252630D01*
X3257744Y28393863D01*
X3359341Y28517659D01*
X3483137Y28619256D01*
X3624370Y28694747D01*
X3624373Y28694748D01*
X3777624Y28741236D01*
X3857253Y28749079D01*
X3897066Y28753000D01*
X4738934Y28753000D01*
X4778747Y28749079D01*
X4778747Y28749079D01*
G37*
G36*
X30178747Y28749079D02*
G01*
X30258376Y28741236D01*
X30411627Y28694748D01*
X30411630Y28694747D01*
X30552863Y28619256D01*
X30676659Y28517659D01*
X30778256Y28393863D01*
X30853747Y28252630D01*
X30853748Y28252627D01*
X30900236Y28099376D01*
X30915933Y27940000D01*
X30900236Y27780624D01*
X30853748Y27627373D01*
X30853747Y27627370D01*
X30778256Y27486137D01*
X30676659Y27362341D01*
X30552863Y27260744D01*
X30411630Y27185253D01*
X30411627Y27185252D01*
X30258376Y27138764D01*
X30178747Y27130921D01*
X30138934Y27127000D01*
X29297066Y27127000D01*
X29257253Y27130921D01*
X29177624Y27138764D01*
X29024373Y27185252D01*
X29024370Y27185253D01*
X28883137Y27260744D01*
X28759341Y27362341D01*
X28657744Y27486137D01*
X28582253Y27627370D01*
X28582252Y27627373D01*
X28535764Y27780624D01*
X28520067Y27940000D01*
X28535764Y28099376D01*
X28582252Y28252627D01*
X28582253Y28252630D01*
X28657744Y28393863D01*
X28759341Y28517659D01*
X28883137Y28619256D01*
X29024370Y28694747D01*
X29024373Y28694748D01*
X29177624Y28741236D01*
X29257253Y28749079D01*
X29297066Y28753000D01*
X30138934Y28753000D01*
X30178747Y28749079D01*
X30178747Y28749079D01*
G37*
G36*
X58579376Y31662236D02*
G01*
X58732627Y31615748D01*
X58732630Y31615747D01*
X58873863Y31540256D01*
X58997659Y31438659D01*
X59099256Y31314863D01*
X59174747Y31173630D01*
X59174748Y31173627D01*
X59221236Y31020376D01*
X59233000Y30900933D01*
X59233000Y30059067D01*
X59221236Y29939624D01*
X59209926Y29902341D01*
X59174747Y29786370D01*
X59099256Y29645137D01*
X58997659Y29521341D01*
X58873863Y29419744D01*
X58732629Y29344253D01*
X58732626Y29344252D01*
X58579375Y29297764D01*
X58420000Y29282067D01*
X58260624Y29297764D01*
X58107373Y29344252D01*
X58107370Y29344253D01*
X57966137Y29419744D01*
X57842341Y29521341D01*
X57740744Y29645137D01*
X57665253Y29786371D01*
X57630074Y29902341D01*
X57618764Y29939625D01*
X57607000Y30059068D01*
X57607000Y30900933D01*
X57618764Y31020376D01*
X57665253Y31173627D01*
X57740746Y31314864D01*
X57842342Y31438659D01*
X57966137Y31540255D01*
X57966136Y31540255D01*
X57966138Y31540256D01*
X58107371Y31615747D01*
X58107374Y31615748D01*
X58260625Y31662236D01*
X58420000Y31677933D01*
X58579376Y31662236D01*
X58579376Y31662236D01*
G37*
G36*
X53499376Y31662236D02*
G01*
X53652627Y31615748D01*
X53652630Y31615747D01*
X53793863Y31540256D01*
X53917659Y31438659D01*
X54019256Y31314863D01*
X54094747Y31173630D01*
X54094748Y31173627D01*
X54141236Y31020376D01*
X54153000Y30900933D01*
X54153000Y30059067D01*
X54141236Y29939624D01*
X54129926Y29902341D01*
X54094747Y29786370D01*
X54019256Y29645137D01*
X53917659Y29521341D01*
X53793863Y29419744D01*
X53652629Y29344253D01*
X53652626Y29344252D01*
X53499375Y29297764D01*
X53340000Y29282067D01*
X53180624Y29297764D01*
X53027373Y29344252D01*
X53027370Y29344253D01*
X52886137Y29419744D01*
X52762341Y29521341D01*
X52660744Y29645137D01*
X52585253Y29786371D01*
X52550074Y29902341D01*
X52538764Y29939625D01*
X52527000Y30059068D01*
X52527000Y30900933D01*
X52538764Y31020376D01*
X52585253Y31173627D01*
X52660746Y31314864D01*
X52762342Y31438659D01*
X52886137Y31540255D01*
X52886136Y31540255D01*
X52886138Y31540256D01*
X53027371Y31615747D01*
X53027374Y31615748D01*
X53180625Y31662236D01*
X53340000Y31677933D01*
X53499376Y31662236D01*
X53499376Y31662236D01*
G37*
G36*
X56039376Y31662236D02*
G01*
X56192627Y31615748D01*
X56192630Y31615747D01*
X56333863Y31540256D01*
X56457659Y31438659D01*
X56559256Y31314863D01*
X56634747Y31173630D01*
X56634748Y31173627D01*
X56681236Y31020376D01*
X56693000Y30900933D01*
X56693000Y30059067D01*
X56681236Y29939624D01*
X56669926Y29902341D01*
X56634747Y29786370D01*
X56559256Y29645137D01*
X56457659Y29521341D01*
X56333863Y29419744D01*
X56192629Y29344253D01*
X56192626Y29344252D01*
X56039375Y29297764D01*
X55880000Y29282067D01*
X55720624Y29297764D01*
X55567373Y29344252D01*
X55567370Y29344253D01*
X55426137Y29419744D01*
X55302341Y29521341D01*
X55200744Y29645137D01*
X55125253Y29786371D01*
X55090074Y29902341D01*
X55078764Y29939625D01*
X55067000Y30059068D01*
X55067000Y30900933D01*
X55078764Y31020376D01*
X55125253Y31173627D01*
X55200746Y31314864D01*
X55302342Y31438659D01*
X55426137Y31540255D01*
X55426136Y31540255D01*
X55426138Y31540256D01*
X55567371Y31615747D01*
X55567374Y31615748D01*
X55720625Y31662236D01*
X55880000Y31677933D01*
X56039376Y31662236D01*
X56039376Y31662236D01*
G37*
G36*
X50959376Y31662236D02*
G01*
X51112627Y31615748D01*
X51112630Y31615747D01*
X51253863Y31540256D01*
X51377659Y31438659D01*
X51479256Y31314863D01*
X51554747Y31173630D01*
X51554748Y31173627D01*
X51601236Y31020376D01*
X51613000Y30900933D01*
X51613000Y30059067D01*
X51601236Y29939624D01*
X51589926Y29902341D01*
X51554747Y29786370D01*
X51479256Y29645137D01*
X51377659Y29521341D01*
X51253863Y29419744D01*
X51112629Y29344253D01*
X51112626Y29344252D01*
X50959375Y29297764D01*
X50800000Y29282067D01*
X50640624Y29297764D01*
X50487373Y29344252D01*
X50487370Y29344253D01*
X50346137Y29419744D01*
X50222341Y29521341D01*
X50120744Y29645137D01*
X50045253Y29786371D01*
X50010074Y29902341D01*
X49998764Y29939625D01*
X49987000Y30059068D01*
X49987000Y30900933D01*
X49998764Y31020376D01*
X50045253Y31173627D01*
X50120746Y31314864D01*
X50222342Y31438659D01*
X50346137Y31540255D01*
X50346136Y31540255D01*
X50346138Y31540256D01*
X50487371Y31615747D01*
X50487374Y31615748D01*
X50640625Y31662236D01*
X50800000Y31677933D01*
X50959376Y31662236D01*
X50959376Y31662236D01*
G37*
G36*
X48419376Y31662236D02*
G01*
X48572627Y31615748D01*
X48572630Y31615747D01*
X48713863Y31540256D01*
X48837659Y31438659D01*
X48939256Y31314863D01*
X49014747Y31173630D01*
X49014748Y31173627D01*
X49061236Y31020376D01*
X49073000Y30900933D01*
X49073000Y30059067D01*
X49061236Y29939624D01*
X49049926Y29902341D01*
X49014747Y29786370D01*
X48939256Y29645137D01*
X48837659Y29521341D01*
X48713863Y29419744D01*
X48572629Y29344253D01*
X48572626Y29344252D01*
X48419375Y29297764D01*
X48260000Y29282067D01*
X48100624Y29297764D01*
X47947373Y29344252D01*
X47947370Y29344253D01*
X47806137Y29419744D01*
X47682341Y29521341D01*
X47580744Y29645137D01*
X47505253Y29786371D01*
X47470074Y29902341D01*
X47458764Y29939625D01*
X47447000Y30059068D01*
X47447000Y30900933D01*
X47458764Y31020376D01*
X47505253Y31173627D01*
X47580746Y31314864D01*
X47682342Y31438659D01*
X47806137Y31540255D01*
X47806136Y31540255D01*
X47806138Y31540256D01*
X47947371Y31615747D01*
X47947374Y31615748D01*
X48100625Y31662236D01*
X48260000Y31677933D01*
X48419376Y31662236D01*
X48419376Y31662236D01*
G37*
G36*
X45879376Y31662236D02*
G01*
X46032627Y31615748D01*
X46032630Y31615747D01*
X46173863Y31540256D01*
X46297659Y31438659D01*
X46399256Y31314863D01*
X46474747Y31173630D01*
X46474748Y31173627D01*
X46521236Y31020376D01*
X46533000Y30900933D01*
X46533000Y30059067D01*
X46521236Y29939624D01*
X46509926Y29902341D01*
X46474747Y29786370D01*
X46399256Y29645137D01*
X46297659Y29521341D01*
X46173863Y29419744D01*
X46032629Y29344253D01*
X46032626Y29344252D01*
X45879375Y29297764D01*
X45720000Y29282067D01*
X45560624Y29297764D01*
X45407373Y29344252D01*
X45407370Y29344253D01*
X45266137Y29419744D01*
X45142341Y29521341D01*
X45040744Y29645137D01*
X44965253Y29786371D01*
X44930074Y29902341D01*
X44918764Y29939625D01*
X44907000Y30059068D01*
X44907000Y30900933D01*
X44918764Y31020376D01*
X44965253Y31173627D01*
X45040746Y31314864D01*
X45142342Y31438659D01*
X45266137Y31540255D01*
X45266136Y31540255D01*
X45266138Y31540256D01*
X45407371Y31615747D01*
X45407374Y31615748D01*
X45560625Y31662236D01*
X45720000Y31677933D01*
X45879376Y31662236D01*
X45879376Y31662236D01*
G37*
G36*
X43339376Y31662236D02*
G01*
X43492627Y31615748D01*
X43492630Y31615747D01*
X43633863Y31540256D01*
X43757659Y31438659D01*
X43859256Y31314863D01*
X43934747Y31173630D01*
X43934748Y31173627D01*
X43981236Y31020376D01*
X43993000Y30900933D01*
X43993000Y30059067D01*
X43981236Y29939624D01*
X43969926Y29902341D01*
X43934747Y29786370D01*
X43859256Y29645137D01*
X43757659Y29521341D01*
X43633863Y29419744D01*
X43492629Y29344253D01*
X43492626Y29344252D01*
X43339375Y29297764D01*
X43180000Y29282067D01*
X43020624Y29297764D01*
X42867373Y29344252D01*
X42867370Y29344253D01*
X42726137Y29419744D01*
X42602341Y29521341D01*
X42500744Y29645137D01*
X42425253Y29786371D01*
X42390074Y29902341D01*
X42378764Y29939625D01*
X42367000Y30059068D01*
X42367000Y30900933D01*
X42378764Y31020376D01*
X42425253Y31173627D01*
X42500746Y31314864D01*
X42602342Y31438659D01*
X42726137Y31540255D01*
X42726136Y31540255D01*
X42726138Y31540256D01*
X42867371Y31615747D01*
X42867374Y31615748D01*
X43020625Y31662236D01*
X43180000Y31677933D01*
X43339376Y31662236D01*
X43339376Y31662236D01*
G37*
G36*
X40799376Y31662236D02*
G01*
X40952627Y31615748D01*
X40952630Y31615747D01*
X41093863Y31540256D01*
X41217659Y31438659D01*
X41319256Y31314863D01*
X41394747Y31173630D01*
X41394748Y31173627D01*
X41441236Y31020376D01*
X41453000Y30900933D01*
X41453000Y30059067D01*
X41441236Y29939624D01*
X41429926Y29902341D01*
X41394747Y29786370D01*
X41319256Y29645137D01*
X41217659Y29521341D01*
X41093863Y29419744D01*
X40952629Y29344253D01*
X40952626Y29344252D01*
X40799375Y29297764D01*
X40640000Y29282067D01*
X40480624Y29297764D01*
X40327373Y29344252D01*
X40327370Y29344253D01*
X40186137Y29419744D01*
X40062341Y29521341D01*
X39960744Y29645137D01*
X39885253Y29786371D01*
X39850074Y29902341D01*
X39838764Y29939625D01*
X39827000Y30059068D01*
X39827000Y30900933D01*
X39838764Y31020376D01*
X39885253Y31173627D01*
X39960746Y31314864D01*
X40062342Y31438659D01*
X40186137Y31540255D01*
X40186136Y31540255D01*
X40186138Y31540256D01*
X40327371Y31615747D01*
X40327374Y31615748D01*
X40480625Y31662236D01*
X40640000Y31677933D01*
X40799376Y31662236D01*
X40799376Y31662236D01*
G37*
G36*
X4778747Y31289079D02*
G01*
X4858376Y31281236D01*
X5011627Y31234748D01*
X5011630Y31234747D01*
X5152863Y31159256D01*
X5276659Y31057659D01*
X5378256Y30933863D01*
X5453747Y30792630D01*
X5453748Y30792627D01*
X5500236Y30639376D01*
X5515933Y30480000D01*
X5500236Y30320624D01*
X5453748Y30167373D01*
X5453747Y30167370D01*
X5378256Y30026137D01*
X5276659Y29902341D01*
X5152863Y29800744D01*
X5011630Y29725253D01*
X5011627Y29725252D01*
X4858376Y29678764D01*
X4778747Y29670921D01*
X4738934Y29667000D01*
X3897066Y29667000D01*
X3857253Y29670921D01*
X3777624Y29678764D01*
X3624373Y29725252D01*
X3624370Y29725253D01*
X3483137Y29800744D01*
X3359341Y29902341D01*
X3257744Y30026137D01*
X3182253Y30167370D01*
X3182252Y30167373D01*
X3135764Y30320624D01*
X3120067Y30480000D01*
X3135764Y30639376D01*
X3182252Y30792627D01*
X3182253Y30792630D01*
X3257744Y30933863D01*
X3359341Y31057659D01*
X3483137Y31159256D01*
X3624370Y31234747D01*
X3624373Y31234748D01*
X3777624Y31281236D01*
X3857253Y31289079D01*
X3897066Y31293000D01*
X4738934Y31293000D01*
X4778747Y31289079D01*
X4778747Y31289079D01*
G37*
G36*
X30178747Y31289079D02*
G01*
X30258376Y31281236D01*
X30411627Y31234748D01*
X30411630Y31234747D01*
X30552863Y31159256D01*
X30676659Y31057659D01*
X30778256Y30933863D01*
X30853747Y30792630D01*
X30853748Y30792627D01*
X30900236Y30639376D01*
X30915933Y30480000D01*
X30900236Y30320624D01*
X30853748Y30167373D01*
X30853747Y30167370D01*
X30778256Y30026137D01*
X30676659Y29902341D01*
X30552863Y29800744D01*
X30411630Y29725253D01*
X30411627Y29725252D01*
X30258376Y29678764D01*
X30178747Y29670921D01*
X30138934Y29667000D01*
X29297066Y29667000D01*
X29257253Y29670921D01*
X29177624Y29678764D01*
X29024373Y29725252D01*
X29024370Y29725253D01*
X28883137Y29800744D01*
X28759341Y29902341D01*
X28657744Y30026137D01*
X28582253Y30167370D01*
X28582252Y30167373D01*
X28535764Y30320624D01*
X28520067Y30480000D01*
X28535764Y30639376D01*
X28582252Y30792627D01*
X28582253Y30792630D01*
X28657744Y30933863D01*
X28759341Y31057659D01*
X28883137Y31159256D01*
X29024370Y31234747D01*
X29024373Y31234748D01*
X29177624Y31281236D01*
X29257253Y31289079D01*
X29297066Y31293000D01*
X30138934Y31293000D01*
X30178747Y31289079D01*
X30178747Y31289079D01*
G37*
G36*
X4778747Y33829079D02*
G01*
X4858376Y33821236D01*
X5011627Y33774748D01*
X5011630Y33774747D01*
X5152863Y33699256D01*
X5276659Y33597659D01*
X5378256Y33473863D01*
X5453747Y33332630D01*
X5453748Y33332627D01*
X5500236Y33179376D01*
X5515933Y33020000D01*
X5500236Y32860624D01*
X5453748Y32707373D01*
X5453747Y32707370D01*
X5378256Y32566137D01*
X5276659Y32442341D01*
X5152863Y32340744D01*
X5011630Y32265253D01*
X5011627Y32265252D01*
X4858376Y32218764D01*
X4778747Y32210921D01*
X4738934Y32207000D01*
X3897066Y32207000D01*
X3857253Y32210921D01*
X3777624Y32218764D01*
X3624373Y32265252D01*
X3624370Y32265253D01*
X3483137Y32340744D01*
X3359341Y32442341D01*
X3257744Y32566137D01*
X3182253Y32707370D01*
X3182252Y32707373D01*
X3135764Y32860624D01*
X3120067Y33020000D01*
X3135764Y33179376D01*
X3182252Y33332627D01*
X3182253Y33332630D01*
X3257744Y33473863D01*
X3359341Y33597659D01*
X3483137Y33699256D01*
X3624370Y33774747D01*
X3624373Y33774748D01*
X3777624Y33821236D01*
X3857253Y33829079D01*
X3897066Y33833000D01*
X4738934Y33833000D01*
X4778747Y33829079D01*
X4778747Y33829079D01*
G37*
G36*
X30178747Y33829079D02*
G01*
X30258376Y33821236D01*
X30411627Y33774748D01*
X30411630Y33774747D01*
X30552863Y33699256D01*
X30676659Y33597659D01*
X30778256Y33473863D01*
X30853747Y33332630D01*
X30853748Y33332627D01*
X30900236Y33179376D01*
X30915933Y33020000D01*
X30900236Y32860624D01*
X30853748Y32707373D01*
X30853747Y32707370D01*
X30778256Y32566137D01*
X30676659Y32442341D01*
X30552863Y32340744D01*
X30411630Y32265253D01*
X30411627Y32265252D01*
X30258376Y32218764D01*
X30178747Y32210921D01*
X30138934Y32207000D01*
X29297066Y32207000D01*
X29257253Y32210921D01*
X29177624Y32218764D01*
X29024373Y32265252D01*
X29024370Y32265253D01*
X28883137Y32340744D01*
X28759341Y32442341D01*
X28657744Y32566137D01*
X28582253Y32707370D01*
X28582252Y32707373D01*
X28535764Y32860624D01*
X28520067Y33020000D01*
X28535764Y33179376D01*
X28582252Y33332627D01*
X28582253Y33332630D01*
X28657744Y33473863D01*
X28759341Y33597659D01*
X28883137Y33699256D01*
X29024370Y33774747D01*
X29024373Y33774748D01*
X29177624Y33821236D01*
X29257253Y33829079D01*
X29297066Y33833000D01*
X30138934Y33833000D01*
X30178747Y33829079D01*
X30178747Y33829079D01*
G37*
G36*
X4778747Y36369079D02*
G01*
X4858376Y36361236D01*
X5011627Y36314748D01*
X5011630Y36314747D01*
X5152863Y36239256D01*
X5276659Y36137659D01*
X5378256Y36013863D01*
X5453747Y35872630D01*
X5453748Y35872627D01*
X5500236Y35719376D01*
X5515933Y35560000D01*
X5500236Y35400624D01*
X5453748Y35247373D01*
X5453747Y35247370D01*
X5378256Y35106137D01*
X5276659Y34982341D01*
X5152863Y34880744D01*
X5011630Y34805253D01*
X5011627Y34805252D01*
X4858376Y34758764D01*
X4778747Y34750921D01*
X4738934Y34747000D01*
X3897066Y34747000D01*
X3857253Y34750921D01*
X3777624Y34758764D01*
X3624373Y34805252D01*
X3624370Y34805253D01*
X3483137Y34880744D01*
X3359341Y34982341D01*
X3257744Y35106137D01*
X3182253Y35247370D01*
X3182252Y35247373D01*
X3135764Y35400624D01*
X3120067Y35560000D01*
X3135764Y35719376D01*
X3182252Y35872627D01*
X3182253Y35872630D01*
X3257744Y36013863D01*
X3359341Y36137659D01*
X3483137Y36239256D01*
X3624370Y36314747D01*
X3624373Y36314748D01*
X3777624Y36361236D01*
X3857253Y36369079D01*
X3897066Y36373000D01*
X4738934Y36373000D01*
X4778747Y36369079D01*
X4778747Y36369079D01*
G37*
G36*
X30178747Y36369079D02*
G01*
X30258376Y36361236D01*
X30411627Y36314748D01*
X30411630Y36314747D01*
X30552863Y36239256D01*
X30676659Y36137659D01*
X30778256Y36013863D01*
X30853747Y35872630D01*
X30853748Y35872627D01*
X30900236Y35719376D01*
X30915933Y35560000D01*
X30900236Y35400624D01*
X30853748Y35247373D01*
X30853747Y35247370D01*
X30778256Y35106137D01*
X30676659Y34982341D01*
X30552863Y34880744D01*
X30411630Y34805253D01*
X30411627Y34805252D01*
X30258376Y34758764D01*
X30178747Y34750921D01*
X30138934Y34747000D01*
X29297066Y34747000D01*
X29257253Y34750921D01*
X29177624Y34758764D01*
X29024373Y34805252D01*
X29024370Y34805253D01*
X28883137Y34880744D01*
X28759341Y34982341D01*
X28657744Y35106137D01*
X28582253Y35247370D01*
X28582252Y35247373D01*
X28535764Y35400624D01*
X28520067Y35560000D01*
X28535764Y35719376D01*
X28582252Y35872627D01*
X28582253Y35872630D01*
X28657744Y36013863D01*
X28759341Y36137659D01*
X28883137Y36239256D01*
X29024370Y36314747D01*
X29024373Y36314748D01*
X29177624Y36361236D01*
X29257253Y36369079D01*
X29297066Y36373000D01*
X30138934Y36373000D01*
X30178747Y36369079D01*
X30178747Y36369079D01*
G37*
G36*
X30178747Y38909079D02*
G01*
X30258376Y38901236D01*
X30411627Y38854748D01*
X30411630Y38854747D01*
X30552863Y38779256D01*
X30676659Y38677659D01*
X30778256Y38553863D01*
X30853747Y38412630D01*
X30853748Y38412627D01*
X30900236Y38259376D01*
X30915933Y38100000D01*
X30900236Y37940624D01*
X30853748Y37787373D01*
X30853747Y37787370D01*
X30778256Y37646137D01*
X30676659Y37522341D01*
X30552863Y37420744D01*
X30411630Y37345253D01*
X30411627Y37345252D01*
X30258376Y37298764D01*
X30178747Y37290921D01*
X30138934Y37287000D01*
X29297066Y37287000D01*
X29257253Y37290921D01*
X29177624Y37298764D01*
X29024373Y37345252D01*
X29024370Y37345253D01*
X28883137Y37420744D01*
X28759341Y37522341D01*
X28657744Y37646137D01*
X28582253Y37787370D01*
X28582252Y37787373D01*
X28535764Y37940624D01*
X28520067Y38100000D01*
X28535764Y38259376D01*
X28582252Y38412627D01*
X28582253Y38412630D01*
X28657744Y38553863D01*
X28759341Y38677659D01*
X28883137Y38779256D01*
X29024370Y38854747D01*
X29024373Y38854748D01*
X29177624Y38901236D01*
X29257253Y38909079D01*
X29297066Y38913000D01*
X30138934Y38913000D01*
X30178747Y38909079D01*
X30178747Y38909079D01*
G37*
G36*
X4778747Y38909079D02*
G01*
X4858376Y38901236D01*
X5011627Y38854748D01*
X5011630Y38854747D01*
X5152863Y38779256D01*
X5276659Y38677659D01*
X5378256Y38553863D01*
X5453747Y38412630D01*
X5453748Y38412627D01*
X5500236Y38259376D01*
X5515933Y38100000D01*
X5500236Y37940624D01*
X5453748Y37787373D01*
X5453747Y37787370D01*
X5378256Y37646137D01*
X5276659Y37522341D01*
X5152863Y37420744D01*
X5011630Y37345253D01*
X5011627Y37345252D01*
X4858376Y37298764D01*
X4778747Y37290921D01*
X4738934Y37287000D01*
X3897066Y37287000D01*
X3857253Y37290921D01*
X3777624Y37298764D01*
X3624373Y37345252D01*
X3624370Y37345253D01*
X3483137Y37420744D01*
X3359341Y37522341D01*
X3257744Y37646137D01*
X3182253Y37787370D01*
X3182252Y37787373D01*
X3135764Y37940624D01*
X3120067Y38100000D01*
X3135764Y38259376D01*
X3182252Y38412627D01*
X3182253Y38412630D01*
X3257744Y38553863D01*
X3359341Y38677659D01*
X3483137Y38779256D01*
X3624370Y38854747D01*
X3624373Y38854748D01*
X3777624Y38901236D01*
X3857253Y38909079D01*
X3897066Y38913000D01*
X4738934Y38913000D01*
X4778747Y38909079D01*
X4778747Y38909079D01*
G37*
G36*
X4778747Y41449079D02*
G01*
X4858376Y41441236D01*
X5011627Y41394748D01*
X5011630Y41394747D01*
X5152863Y41319256D01*
X5276659Y41217659D01*
X5378256Y41093863D01*
X5453747Y40952630D01*
X5453748Y40952627D01*
X5500236Y40799376D01*
X5515933Y40640000D01*
X5500236Y40480624D01*
X5453748Y40327373D01*
X5453747Y40327370D01*
X5378256Y40186137D01*
X5276659Y40062341D01*
X5152863Y39960744D01*
X5011630Y39885253D01*
X5011627Y39885252D01*
X4858376Y39838764D01*
X4778747Y39830921D01*
X4738934Y39827000D01*
X3897066Y39827000D01*
X3857253Y39830921D01*
X3777624Y39838764D01*
X3624373Y39885252D01*
X3624370Y39885253D01*
X3483137Y39960744D01*
X3359341Y40062341D01*
X3257744Y40186137D01*
X3182253Y40327370D01*
X3182252Y40327373D01*
X3135764Y40480624D01*
X3120067Y40640000D01*
X3135764Y40799376D01*
X3182252Y40952627D01*
X3182253Y40952630D01*
X3257744Y41093863D01*
X3359341Y41217659D01*
X3483137Y41319256D01*
X3624370Y41394747D01*
X3624373Y41394748D01*
X3777624Y41441236D01*
X3857253Y41449079D01*
X3897066Y41453000D01*
X4738934Y41453000D01*
X4778747Y41449079D01*
X4778747Y41449079D01*
G37*
G36*
X30178747Y41449079D02*
G01*
X30258376Y41441236D01*
X30411627Y41394748D01*
X30411630Y41394747D01*
X30552863Y41319256D01*
X30676659Y41217659D01*
X30778256Y41093863D01*
X30853747Y40952630D01*
X30853748Y40952627D01*
X30900236Y40799376D01*
X30915933Y40640000D01*
X30900236Y40480624D01*
X30853748Y40327373D01*
X30853747Y40327370D01*
X30778256Y40186137D01*
X30676659Y40062341D01*
X30552863Y39960744D01*
X30411630Y39885253D01*
X30411627Y39885252D01*
X30258376Y39838764D01*
X30178747Y39830921D01*
X30138934Y39827000D01*
X29297066Y39827000D01*
X29257253Y39830921D01*
X29177624Y39838764D01*
X29024373Y39885252D01*
X29024370Y39885253D01*
X28883137Y39960744D01*
X28759341Y40062341D01*
X28657744Y40186137D01*
X28582253Y40327370D01*
X28582252Y40327373D01*
X28535764Y40480624D01*
X28520067Y40640000D01*
X28535764Y40799376D01*
X28582252Y40952627D01*
X28582253Y40952630D01*
X28657744Y41093863D01*
X28759341Y41217659D01*
X28883137Y41319256D01*
X29024370Y41394747D01*
X29024373Y41394748D01*
X29177624Y41441236D01*
X29257253Y41449079D01*
X29297066Y41453000D01*
X30138934Y41453000D01*
X30178747Y41449079D01*
X30178747Y41449079D01*
G37*
G36*
X30178747Y43989079D02*
G01*
X30258376Y43981236D01*
X30411627Y43934748D01*
X30411630Y43934747D01*
X30552863Y43859256D01*
X30676659Y43757659D01*
X30778256Y43633863D01*
X30853747Y43492630D01*
X30853748Y43492627D01*
X30900236Y43339376D01*
X30915933Y43180000D01*
X30900236Y43020624D01*
X30853748Y42867373D01*
X30853747Y42867370D01*
X30778256Y42726137D01*
X30676659Y42602341D01*
X30552863Y42500744D01*
X30411630Y42425253D01*
X30411627Y42425252D01*
X30258376Y42378764D01*
X30178747Y42370921D01*
X30138934Y42367000D01*
X29297066Y42367000D01*
X29257253Y42370921D01*
X29177624Y42378764D01*
X29024373Y42425252D01*
X29024370Y42425253D01*
X28883137Y42500744D01*
X28759341Y42602341D01*
X28657744Y42726137D01*
X28582253Y42867370D01*
X28582252Y42867373D01*
X28535764Y43020624D01*
X28520067Y43180000D01*
X28535764Y43339376D01*
X28582252Y43492627D01*
X28582253Y43492630D01*
X28657744Y43633863D01*
X28759341Y43757659D01*
X28883137Y43859256D01*
X29024370Y43934747D01*
X29024373Y43934748D01*
X29177624Y43981236D01*
X29257253Y43989079D01*
X29297066Y43993000D01*
X30138934Y43993000D01*
X30178747Y43989079D01*
X30178747Y43989079D01*
G37*
G36*
X4778747Y43989079D02*
G01*
X4858376Y43981236D01*
X5011627Y43934748D01*
X5011630Y43934747D01*
X5152863Y43859256D01*
X5276659Y43757659D01*
X5378256Y43633863D01*
X5453747Y43492630D01*
X5453748Y43492627D01*
X5500236Y43339376D01*
X5515933Y43180000D01*
X5500236Y43020624D01*
X5453748Y42867373D01*
X5453747Y42867370D01*
X5378256Y42726137D01*
X5276659Y42602341D01*
X5152863Y42500744D01*
X5011630Y42425253D01*
X5011627Y42425252D01*
X4858376Y42378764D01*
X4778747Y42370921D01*
X4738934Y42367000D01*
X3897066Y42367000D01*
X3857253Y42370921D01*
X3777624Y42378764D01*
X3624373Y42425252D01*
X3624370Y42425253D01*
X3483137Y42500744D01*
X3359341Y42602341D01*
X3257744Y42726137D01*
X3182253Y42867370D01*
X3182252Y42867373D01*
X3135764Y43020624D01*
X3120067Y43180000D01*
X3135764Y43339376D01*
X3182252Y43492627D01*
X3182253Y43492630D01*
X3257744Y43633863D01*
X3359341Y43757659D01*
X3483137Y43859256D01*
X3624370Y43934747D01*
X3624373Y43934748D01*
X3777624Y43981236D01*
X3857253Y43989079D01*
X3897066Y43993000D01*
X4738934Y43993000D01*
X4778747Y43989079D01*
X4778747Y43989079D01*
G37*
G36*
X30178747Y46529079D02*
G01*
X30258376Y46521236D01*
X30411627Y46474748D01*
X30411630Y46474747D01*
X30552863Y46399256D01*
X30676659Y46297659D01*
X30778256Y46173863D01*
X30853747Y46032630D01*
X30853748Y46032627D01*
X30900236Y45879376D01*
X30915933Y45720000D01*
X30900236Y45560624D01*
X30853748Y45407373D01*
X30853747Y45407370D01*
X30778256Y45266137D01*
X30676659Y45142341D01*
X30552863Y45040744D01*
X30411630Y44965253D01*
X30411627Y44965252D01*
X30258376Y44918764D01*
X30178747Y44910921D01*
X30138934Y44907000D01*
X29297066Y44907000D01*
X29257253Y44910921D01*
X29177624Y44918764D01*
X29024373Y44965252D01*
X29024370Y44965253D01*
X28883137Y45040744D01*
X28759341Y45142341D01*
X28657744Y45266137D01*
X28582253Y45407370D01*
X28582252Y45407373D01*
X28535764Y45560624D01*
X28520067Y45720000D01*
X28535764Y45879376D01*
X28582252Y46032627D01*
X28582253Y46032630D01*
X28657744Y46173863D01*
X28759341Y46297659D01*
X28883137Y46399256D01*
X29024370Y46474747D01*
X29024373Y46474748D01*
X29177624Y46521236D01*
X29257253Y46529079D01*
X29297066Y46533000D01*
X30138934Y46533000D01*
X30178747Y46529079D01*
X30178747Y46529079D01*
G37*
G36*
X4778747Y46529079D02*
G01*
X4858376Y46521236D01*
X5011627Y46474748D01*
X5011630Y46474747D01*
X5152863Y46399256D01*
X5276659Y46297659D01*
X5378256Y46173863D01*
X5453747Y46032630D01*
X5453748Y46032627D01*
X5500236Y45879376D01*
X5515933Y45720000D01*
X5500236Y45560624D01*
X5453748Y45407373D01*
X5453747Y45407370D01*
X5378256Y45266137D01*
X5276659Y45142341D01*
X5152863Y45040744D01*
X5011630Y44965253D01*
X5011627Y44965252D01*
X4858376Y44918764D01*
X4778747Y44910921D01*
X4738934Y44907000D01*
X3897066Y44907000D01*
X3857253Y44910921D01*
X3777624Y44918764D01*
X3624373Y44965252D01*
X3624370Y44965253D01*
X3483137Y45040744D01*
X3359341Y45142341D01*
X3257744Y45266137D01*
X3182253Y45407370D01*
X3182252Y45407373D01*
X3135764Y45560624D01*
X3120067Y45720000D01*
X3135764Y45879376D01*
X3182252Y46032627D01*
X3182253Y46032630D01*
X3257744Y46173863D01*
X3359341Y46297659D01*
X3483137Y46399256D01*
X3624370Y46474747D01*
X3624373Y46474748D01*
X3777624Y46521236D01*
X3857253Y46529079D01*
X3897066Y46533000D01*
X4738934Y46533000D01*
X4778747Y46529079D01*
X4778747Y46529079D01*
G37*
G36*
X30178747Y49069079D02*
G01*
X30258376Y49061236D01*
X30411627Y49014748D01*
X30411630Y49014747D01*
X30552863Y48939256D01*
X30676659Y48837659D01*
X30778256Y48713863D01*
X30853747Y48572630D01*
X30853748Y48572627D01*
X30900236Y48419376D01*
X30915933Y48260000D01*
X30900236Y48100624D01*
X30853748Y47947373D01*
X30853747Y47947370D01*
X30778256Y47806137D01*
X30676659Y47682341D01*
X30552863Y47580744D01*
X30411630Y47505253D01*
X30411627Y47505252D01*
X30258376Y47458764D01*
X30178747Y47450921D01*
X30138934Y47447000D01*
X29297066Y47447000D01*
X29257253Y47450921D01*
X29177624Y47458764D01*
X29024373Y47505252D01*
X29024370Y47505253D01*
X28883137Y47580744D01*
X28759341Y47682341D01*
X28657744Y47806137D01*
X28582253Y47947370D01*
X28582252Y47947373D01*
X28535764Y48100624D01*
X28520067Y48260000D01*
X28535764Y48419376D01*
X28582252Y48572627D01*
X28582253Y48572630D01*
X28657744Y48713863D01*
X28759341Y48837659D01*
X28883137Y48939256D01*
X29024370Y49014747D01*
X29024373Y49014748D01*
X29177624Y49061236D01*
X29257253Y49069079D01*
X29297066Y49073000D01*
X30138934Y49073000D01*
X30178747Y49069079D01*
X30178747Y49069079D01*
G37*
G36*
X4778747Y49069079D02*
G01*
X4858376Y49061236D01*
X5011627Y49014748D01*
X5011630Y49014747D01*
X5152863Y48939256D01*
X5276659Y48837659D01*
X5378256Y48713863D01*
X5453747Y48572630D01*
X5453748Y48572627D01*
X5500236Y48419376D01*
X5515933Y48260000D01*
X5500236Y48100624D01*
X5453748Y47947373D01*
X5453747Y47947370D01*
X5378256Y47806137D01*
X5276659Y47682341D01*
X5152863Y47580744D01*
X5011630Y47505253D01*
X5011627Y47505252D01*
X4858376Y47458764D01*
X4778747Y47450921D01*
X4738934Y47447000D01*
X3897066Y47447000D01*
X3857253Y47450921D01*
X3777624Y47458764D01*
X3624373Y47505252D01*
X3624370Y47505253D01*
X3483137Y47580744D01*
X3359341Y47682341D01*
X3257744Y47806137D01*
X3182253Y47947370D01*
X3182252Y47947373D01*
X3135764Y48100624D01*
X3120067Y48260000D01*
X3135764Y48419376D01*
X3182252Y48572627D01*
X3182253Y48572630D01*
X3257744Y48713863D01*
X3359341Y48837659D01*
X3483137Y48939256D01*
X3624370Y49014747D01*
X3624373Y49014748D01*
X3777624Y49061236D01*
X3857253Y49069079D01*
X3897066Y49073000D01*
X4738934Y49073000D01*
X4778747Y49069079D01*
X4778747Y49069079D01*
G37*
G36*
X30178747Y51609079D02*
G01*
X30258376Y51601236D01*
X30411627Y51554748D01*
X30411630Y51554747D01*
X30552863Y51479256D01*
X30676659Y51377659D01*
X30778256Y51253863D01*
X30853747Y51112630D01*
X30853748Y51112627D01*
X30900236Y50959376D01*
X30915933Y50800000D01*
X30900236Y50640624D01*
X30853748Y50487373D01*
X30853747Y50487370D01*
X30778256Y50346137D01*
X30676659Y50222341D01*
X30552863Y50120744D01*
X30411630Y50045253D01*
X30411627Y50045252D01*
X30258376Y49998764D01*
X30178747Y49990921D01*
X30138934Y49987000D01*
X29297066Y49987000D01*
X29257253Y49990921D01*
X29177624Y49998764D01*
X29024373Y50045252D01*
X29024370Y50045253D01*
X28883137Y50120744D01*
X28759341Y50222341D01*
X28657744Y50346137D01*
X28582253Y50487370D01*
X28582252Y50487373D01*
X28535764Y50640624D01*
X28520067Y50800000D01*
X28535764Y50959376D01*
X28582252Y51112627D01*
X28582253Y51112630D01*
X28657744Y51253863D01*
X28759341Y51377659D01*
X28883137Y51479256D01*
X29024370Y51554747D01*
X29024373Y51554748D01*
X29177624Y51601236D01*
X29257253Y51609079D01*
X29297066Y51613000D01*
X30138934Y51613000D01*
X30178747Y51609079D01*
X30178747Y51609079D01*
G37*
G36*
X4778747Y51609079D02*
G01*
X4858376Y51601236D01*
X5011627Y51554748D01*
X5011630Y51554747D01*
X5152863Y51479256D01*
X5276659Y51377659D01*
X5378256Y51253863D01*
X5453747Y51112630D01*
X5453748Y51112627D01*
X5500236Y50959376D01*
X5515933Y50800000D01*
X5500236Y50640624D01*
X5453748Y50487373D01*
X5453747Y50487370D01*
X5378256Y50346137D01*
X5276659Y50222341D01*
X5152863Y50120744D01*
X5011630Y50045253D01*
X5011627Y50045252D01*
X4858376Y49998764D01*
X4778747Y49990921D01*
X4738934Y49987000D01*
X3897066Y49987000D01*
X3857253Y49990921D01*
X3777624Y49998764D01*
X3624373Y50045252D01*
X3624370Y50045253D01*
X3483137Y50120744D01*
X3359341Y50222341D01*
X3257744Y50346137D01*
X3182253Y50487370D01*
X3182252Y50487373D01*
X3135764Y50640624D01*
X3120067Y50800000D01*
X3135764Y50959376D01*
X3182252Y51112627D01*
X3182253Y51112630D01*
X3257744Y51253863D01*
X3359341Y51377659D01*
X3483137Y51479256D01*
X3624370Y51554747D01*
X3624373Y51554748D01*
X3777624Y51601236D01*
X3857253Y51609079D01*
X3897066Y51613000D01*
X4738934Y51613000D01*
X4778747Y51609079D01*
X4778747Y51609079D01*
G37*
M02*
