M48
; DRILL file {KiCad (5.1.0)-1} date 02/07/2019 12:10:55
; FORMAT={-:-/ absolute / inch / decimal}
; #@! TF.CreationDate,2019-07-02T12:10:55+02:00
; #@! TF.GenerationSoftware,Kicad,Pcbnew,(5.1.0)-1
; #@! TF.FileFunction,Plated,1,2,PTH
FMAT,2
INCH
T1C0.0300
%
G90
G05
T1
X1.8Y0.4
X1.9Y1.0
X1.6Y1.2
X1.7Y1.2
X1.8Y1.2
X1.9Y1.2
X2.0Y1.2
X2.1Y1.2
X2.2Y1.2
X2.3Y1.2
X0.17Y2.0
X0.17Y1.9
X0.17Y1.8
X0.17Y1.7
X0.17Y1.6
X0.17Y1.5
X0.17Y1.4
X0.17Y1.3
X0.17Y1.2
X0.17Y1.1
X0.17Y1.0
X0.17Y0.9
X0.17Y0.8
X0.17Y0.7
X0.17Y0.6
X0.17Y0.5
X0.17Y0.4
X0.17Y0.3
X1.17Y2.0
X1.17Y1.9
X1.17Y1.8
X1.17Y1.7
X1.17Y1.6
X1.17Y1.5
X1.17Y1.4
X1.17Y1.3
X1.17Y1.2
X1.17Y1.1
X1.17Y1.0
X1.17Y0.9
X1.17Y0.8
X1.17Y0.7
X1.17Y0.6
X1.17Y0.5
X1.17Y0.4
X1.17Y0.3
X1.6Y0.8
X1.6Y0.7
X1.6Y0.6
X1.6Y0.5
X1.4Y1.0
X1.4Y0.3
X1.6Y0.4
X1.4Y0.9
T0
M30
