G04 #@! TF.GenerationSoftware,KiCad,Pcbnew,(5.1.0)-1*
G04 #@! TF.CreationDate,2019-07-02T12:10:51+02:00*
G04 #@! TF.ProjectId,LCP,4c43502e-6b69-4636-9164-5f7063625858,rev?*
G04 #@! TF.SameCoordinates,PX60e4b00PY6350ce0*
G04 #@! TF.FileFunction,Legend,Bot*
G04 #@! TF.FilePolarity,Positive*
%FSLAX46Y46*%
G04 Gerber Fmt 4.6, Leading zero omitted, Abs format (unit mm)*
G04 Created by KiCad (PCBNEW (5.1.0)-1) date 2019-07-02 12:10:52*
%MOMM*%
%LPD*%
G04 APERTURE LIST*
%ADD10C,0.150000*%
%ADD11C,0.500000*%
G04 APERTURE END LIST*
D10*
X67762380Y5167143D02*
X67286190Y5500477D01*
X67762380Y5738572D02*
X66762380Y5738572D01*
X66762380Y5357620D01*
X66810000Y5262381D01*
X66857619Y5214762D01*
X66952857Y5167143D01*
X67095714Y5167143D01*
X67190952Y5214762D01*
X67238571Y5262381D01*
X67286190Y5357620D01*
X67286190Y5738572D01*
X67714761Y4357620D02*
X67762380Y4452858D01*
X67762380Y4643334D01*
X67714761Y4738572D01*
X67619523Y4786191D01*
X67238571Y4786191D01*
X67143333Y4738572D01*
X67095714Y4643334D01*
X67095714Y4452858D01*
X67143333Y4357620D01*
X67238571Y4310000D01*
X67333809Y4310000D01*
X67429047Y4786191D01*
X67095714Y3976667D02*
X67762380Y3738572D01*
X67095714Y3500477D01*
X66857619Y2405239D02*
X66810000Y2357620D01*
X66762380Y2262381D01*
X66762380Y2024286D01*
X66810000Y1929048D01*
X66857619Y1881429D01*
X66952857Y1833810D01*
X67048095Y1833810D01*
X67190952Y1881429D01*
X67762380Y2452858D01*
X67762380Y1833810D01*
X64842380Y57512977D02*
X64366190Y57846310D01*
X64842380Y58084405D02*
X63842380Y58084405D01*
X63842380Y57703453D01*
X63890000Y57608215D01*
X63937619Y57560596D01*
X64032857Y57512977D01*
X64175714Y57512977D01*
X64270952Y57560596D01*
X64318571Y57608215D01*
X64366190Y57703453D01*
X64366190Y58084405D01*
X64842380Y56941548D02*
X64794761Y57036786D01*
X64747142Y57084405D01*
X64651904Y57132024D01*
X64366190Y57132024D01*
X64270952Y57084405D01*
X64223333Y57036786D01*
X64175714Y56941548D01*
X64175714Y56798691D01*
X64223333Y56703453D01*
X64270952Y56655834D01*
X64366190Y56608215D01*
X64651904Y56608215D01*
X64747142Y56655834D01*
X64794761Y56703453D01*
X64842380Y56798691D01*
X64842380Y56941548D01*
X64842380Y56179643D02*
X63842380Y56179643D01*
X64223333Y56179643D02*
X64175714Y56084405D01*
X64175714Y55893929D01*
X64223333Y55798691D01*
X64270952Y55751072D01*
X64366190Y55703453D01*
X64651904Y55703453D01*
X64747142Y55751072D01*
X64794761Y55798691D01*
X64842380Y55893929D01*
X64842380Y56084405D01*
X64794761Y56179643D01*
X64794761Y54893929D02*
X64842380Y54989167D01*
X64842380Y55179643D01*
X64794761Y55274881D01*
X64699523Y55322500D01*
X64318571Y55322500D01*
X64223333Y55274881D01*
X64175714Y55179643D01*
X64175714Y54989167D01*
X64223333Y54893929D01*
X64318571Y54846310D01*
X64413809Y54846310D01*
X64509047Y55322500D01*
X64842380Y54417739D02*
X64175714Y54417739D01*
X64366190Y54417739D02*
X64270952Y54370120D01*
X64223333Y54322500D01*
X64175714Y54227262D01*
X64175714Y54132024D01*
X64175714Y53941548D02*
X64175714Y53560596D01*
X63842380Y53798691D02*
X64699523Y53798691D01*
X64794761Y53751072D01*
X64842380Y53655834D01*
X64842380Y53560596D01*
X64842380Y53084405D02*
X64794761Y53179643D01*
X64747142Y53227262D01*
X64651904Y53274881D01*
X64366190Y53274881D01*
X64270952Y53227262D01*
X64223333Y53179643D01*
X64175714Y53084405D01*
X64175714Y52941548D01*
X64223333Y52846310D01*
X64270952Y52798691D01*
X64366190Y52751072D01*
X64651904Y52751072D01*
X64747142Y52798691D01*
X64794761Y52846310D01*
X64842380Y52941548D01*
X64842380Y53084405D01*
X63890000Y51036786D02*
X63842380Y51132024D01*
X63842380Y51274881D01*
X63890000Y51417739D01*
X63985238Y51512977D01*
X64080476Y51560596D01*
X64270952Y51608215D01*
X64413809Y51608215D01*
X64604285Y51560596D01*
X64699523Y51512977D01*
X64794761Y51417739D01*
X64842380Y51274881D01*
X64842380Y51179643D01*
X64794761Y51036786D01*
X64747142Y50989167D01*
X64413809Y50989167D01*
X64413809Y51179643D01*
X64794761Y50179643D02*
X64842380Y50274881D01*
X64842380Y50465358D01*
X64794761Y50560596D01*
X64699523Y50608215D01*
X64318571Y50608215D01*
X64223333Y50560596D01*
X64175714Y50465358D01*
X64175714Y50274881D01*
X64223333Y50179643D01*
X64318571Y50132024D01*
X64413809Y50132024D01*
X64509047Y50608215D01*
X64175714Y49703453D02*
X64842380Y49703453D01*
X64270952Y49703453D02*
X64223333Y49655834D01*
X64175714Y49560596D01*
X64175714Y49417739D01*
X64223333Y49322500D01*
X64318571Y49274881D01*
X64842380Y49274881D01*
X64175714Y48941548D02*
X64175714Y48560596D01*
X63842380Y48798691D02*
X64699523Y48798691D01*
X64794761Y48751072D01*
X64842380Y48655834D01*
X64842380Y48560596D01*
X64842380Y48227262D02*
X64175714Y48227262D01*
X63842380Y48227262D02*
X63890000Y48274881D01*
X63937619Y48227262D01*
X63890000Y48179643D01*
X63842380Y48227262D01*
X63937619Y48227262D01*
X64842380Y47608215D02*
X64794761Y47703453D01*
X64699523Y47751072D01*
X63842380Y47751072D01*
X64794761Y46846310D02*
X64842380Y46941548D01*
X64842380Y47132024D01*
X64794761Y47227262D01*
X64699523Y47274881D01*
X64318571Y47274881D01*
X64223333Y47227262D01*
X64175714Y47132024D01*
X64175714Y46941548D01*
X64223333Y46846310D01*
X64318571Y46798691D01*
X64413809Y46798691D01*
X64509047Y47274881D01*
X66492380Y58084405D02*
X65492380Y58084405D01*
X65492380Y57846310D01*
X65540000Y57703453D01*
X65635238Y57608215D01*
X65730476Y57560596D01*
X65920952Y57512977D01*
X66063809Y57512977D01*
X66254285Y57560596D01*
X66349523Y57608215D01*
X66444761Y57703453D01*
X66492380Y57846310D01*
X66492380Y58084405D01*
X66492380Y56655834D02*
X65968571Y56655834D01*
X65873333Y56703453D01*
X65825714Y56798691D01*
X65825714Y56989167D01*
X65873333Y57084405D01*
X66444761Y56655834D02*
X66492380Y56751072D01*
X66492380Y56989167D01*
X66444761Y57084405D01*
X66349523Y57132024D01*
X66254285Y57132024D01*
X66159047Y57084405D01*
X66111428Y56989167D01*
X66111428Y56751072D01*
X66063809Y56655834D01*
X65825714Y56179643D02*
X66492380Y56179643D01*
X65920952Y56179643D02*
X65873333Y56132024D01*
X65825714Y56036786D01*
X65825714Y55893929D01*
X65873333Y55798691D01*
X65968571Y55751072D01*
X66492380Y55751072D01*
X66492380Y55274881D02*
X65825714Y55274881D01*
X65492380Y55274881D02*
X65540000Y55322500D01*
X65587619Y55274881D01*
X65540000Y55227262D01*
X65492380Y55274881D01*
X65587619Y55274881D01*
X66444761Y54417739D02*
X66492380Y54512977D01*
X66492380Y54703453D01*
X66444761Y54798691D01*
X66349523Y54846310D01*
X65968571Y54846310D01*
X65873333Y54798691D01*
X65825714Y54703453D01*
X65825714Y54512977D01*
X65873333Y54417739D01*
X65968571Y54370120D01*
X66063809Y54370120D01*
X66159047Y54846310D01*
X66492380Y53798691D02*
X66444761Y53893929D01*
X66349523Y53941548D01*
X65492380Y53941548D01*
X66492380Y52179643D02*
X66492380Y52655834D01*
X65492380Y52655834D01*
X66492380Y51703453D02*
X66444761Y51798691D01*
X66397142Y51846310D01*
X66301904Y51893929D01*
X66016190Y51893929D01*
X65920952Y51846310D01*
X65873333Y51798691D01*
X65825714Y51703453D01*
X65825714Y51560596D01*
X65873333Y51465358D01*
X65920952Y51417739D01*
X66016190Y51370120D01*
X66301904Y51370120D01*
X66397142Y51417739D01*
X66444761Y51465358D01*
X66492380Y51560596D01*
X66492380Y51703453D01*
X65825714Y51084405D02*
X65825714Y50703453D01*
X65492380Y50941548D02*
X66349523Y50941548D01*
X66444761Y50893929D01*
X66492380Y50798691D01*
X66492380Y50703453D01*
X66492380Y49941548D02*
X65968571Y49941548D01*
X65873333Y49989167D01*
X65825714Y50084405D01*
X65825714Y50274881D01*
X65873333Y50370120D01*
X66444761Y49941548D02*
X66492380Y50036786D01*
X66492380Y50274881D01*
X66444761Y50370120D01*
X66349523Y50417739D01*
X66254285Y50417739D01*
X66159047Y50370120D01*
X66111428Y50274881D01*
X66111428Y50036786D01*
X66063809Y49941548D01*
X65825714Y49465358D02*
X66492380Y49465358D01*
X65920952Y49465358D02*
X65873333Y49417739D01*
X65825714Y49322500D01*
X65825714Y49179643D01*
X65873333Y49084405D01*
X65968571Y49036786D01*
X66492380Y49036786D01*
X66492380Y48417739D02*
X66444761Y48512977D01*
X66397142Y48560596D01*
X66301904Y48608215D01*
X66016190Y48608215D01*
X65920952Y48560596D01*
X65873333Y48512977D01*
X65825714Y48417739D01*
X65825714Y48274881D01*
X65873333Y48179643D01*
X65920952Y48132024D01*
X66016190Y48084405D01*
X66301904Y48084405D01*
X66397142Y48132024D01*
X66444761Y48179643D01*
X66492380Y48274881D01*
X66492380Y48417739D01*
X67142380Y58227262D02*
X68142380Y57893929D01*
X67142380Y57560596D01*
X68142380Y57227262D02*
X67475714Y57227262D01*
X67142380Y57227262D02*
X67190000Y57274881D01*
X67237619Y57227262D01*
X67190000Y57179643D01*
X67142380Y57227262D01*
X67237619Y57227262D01*
X67475714Y56893929D02*
X67475714Y56512977D01*
X67142380Y56751072D02*
X67999523Y56751072D01*
X68094761Y56703453D01*
X68142380Y56608215D01*
X68142380Y56512977D01*
X68142380Y56036786D02*
X68094761Y56132024D01*
X68047142Y56179643D01*
X67951904Y56227262D01*
X67666190Y56227262D01*
X67570952Y56179643D01*
X67523333Y56132024D01*
X67475714Y56036786D01*
X67475714Y55893929D01*
X67523333Y55798691D01*
X67570952Y55751072D01*
X67666190Y55703453D01*
X67951904Y55703453D01*
X68047142Y55751072D01*
X68094761Y55798691D01*
X68142380Y55893929D01*
X68142380Y56036786D01*
X68142380Y54512977D02*
X67142380Y54512977D01*
X67142380Y54132024D01*
X67190000Y54036786D01*
X67237619Y53989167D01*
X67332857Y53941548D01*
X67475714Y53941548D01*
X67570952Y53989167D01*
X67618571Y54036786D01*
X67666190Y54132024D01*
X67666190Y54512977D01*
X68142380Y53084405D02*
X67618571Y53084405D01*
X67523333Y53132024D01*
X67475714Y53227262D01*
X67475714Y53417739D01*
X67523333Y53512977D01*
X68094761Y53084405D02*
X68142380Y53179643D01*
X68142380Y53417739D01*
X68094761Y53512977D01*
X67999523Y53560596D01*
X67904285Y53560596D01*
X67809047Y53512977D01*
X67761428Y53417739D01*
X67761428Y53179643D01*
X67713809Y53084405D01*
X67475714Y52608215D02*
X68475714Y52608215D01*
X67523333Y52608215D02*
X67475714Y52512977D01*
X67475714Y52322500D01*
X67523333Y52227262D01*
X67570952Y52179643D01*
X67666190Y52132024D01*
X67951904Y52132024D01*
X68047142Y52179643D01*
X68094761Y52227262D01*
X68142380Y52322500D01*
X68142380Y52512977D01*
X68094761Y52608215D01*
X68142380Y51274881D02*
X67618571Y51274881D01*
X67523333Y51322500D01*
X67475714Y51417739D01*
X67475714Y51608215D01*
X67523333Y51703453D01*
X68094761Y51274881D02*
X68142380Y51370120D01*
X68142380Y51608215D01*
X68094761Y51703453D01*
X67999523Y51751072D01*
X67904285Y51751072D01*
X67809047Y51703453D01*
X67761428Y51608215D01*
X67761428Y51370120D01*
X67713809Y51274881D01*
X68142380Y50798691D02*
X67475714Y50798691D01*
X67666190Y50798691D02*
X67570952Y50751072D01*
X67523333Y50703453D01*
X67475714Y50608215D01*
X67475714Y50512977D01*
X68094761Y49798691D02*
X68142380Y49893929D01*
X68142380Y50084405D01*
X68094761Y50179643D01*
X67999523Y50227262D01*
X67618571Y50227262D01*
X67523333Y50179643D01*
X67475714Y50084405D01*
X67475714Y49893929D01*
X67523333Y49798691D01*
X67618571Y49751072D01*
X67713809Y49751072D01*
X67809047Y50227262D01*
X68142380Y49179643D02*
X68094761Y49274881D01*
X67999523Y49322500D01*
X67142380Y49322500D01*
X68142380Y48655834D02*
X68094761Y48751072D01*
X67999523Y48798691D01*
X67142380Y48798691D01*
X68142380Y47846310D02*
X67618571Y47846310D01*
X67523333Y47893929D01*
X67475714Y47989167D01*
X67475714Y48179643D01*
X67523333Y48274881D01*
X68094761Y47846310D02*
X68142380Y47941548D01*
X68142380Y48179643D01*
X68094761Y48274881D01*
X67999523Y48322500D01*
X67904285Y48322500D01*
X67809047Y48274881D01*
X67761428Y48179643D01*
X67761428Y47941548D01*
X67713809Y47846310D01*
D11*
X15367142Y33821429D02*
X15367142Y35250000D01*
X12367142Y35250000D01*
X15081428Y31107143D02*
X15224285Y31250000D01*
X15367142Y31678572D01*
X15367142Y31964286D01*
X15224285Y32392858D01*
X14938571Y32678572D01*
X14652857Y32821429D01*
X14081428Y32964286D01*
X13652857Y32964286D01*
X13081428Y32821429D01*
X12795714Y32678572D01*
X12510000Y32392858D01*
X12367142Y31964286D01*
X12367142Y31678572D01*
X12510000Y31250000D01*
X12652857Y31107143D01*
X15367142Y29821429D02*
X12367142Y29821429D01*
X12367142Y28678572D01*
X12510000Y28392858D01*
X12652857Y28250000D01*
X12938571Y28107143D01*
X13367142Y28107143D01*
X13652857Y28250000D01*
X13795714Y28392858D01*
X13938571Y28678572D01*
X13938571Y29821429D01*
X18938571Y46607143D02*
X20367142Y46607143D01*
X17367142Y47607143D02*
X18938571Y46607143D01*
X17367142Y45607143D01*
X20224285Y43464286D02*
X20367142Y43750000D01*
X20367142Y44321429D01*
X20224285Y44607143D01*
X19938571Y44750000D01*
X18795714Y44750000D01*
X18510000Y44607143D01*
X18367142Y44321429D01*
X18367142Y43750000D01*
X18510000Y43464286D01*
X18795714Y43321429D01*
X19081428Y43321429D01*
X19367142Y44750000D01*
X20367142Y40750000D02*
X18795714Y40750000D01*
X18510000Y40892858D01*
X18367142Y41178572D01*
X18367142Y41750000D01*
X18510000Y42035715D01*
X20224285Y40750000D02*
X20367142Y41035715D01*
X20367142Y41750000D01*
X20224285Y42035715D01*
X19938571Y42178572D01*
X19652857Y42178572D01*
X19367142Y42035715D01*
X19224285Y41750000D01*
X19224285Y41035715D01*
X19081428Y40750000D01*
X20367142Y39321429D02*
X18367142Y39321429D01*
X18938571Y39321429D02*
X18652857Y39178572D01*
X18510000Y39035715D01*
X18367142Y38750000D01*
X18367142Y38464286D01*
X17652857Y35321429D02*
X17510000Y35178572D01*
X17367142Y34892858D01*
X17367142Y34178572D01*
X17510000Y33892858D01*
X17652857Y33750000D01*
X17938571Y33607143D01*
X18224285Y33607143D01*
X18652857Y33750000D01*
X20367142Y35464286D01*
X20367142Y33607143D01*
X17367142Y31750000D02*
X17367142Y31464286D01*
X17510000Y31178572D01*
X17652857Y31035715D01*
X17938571Y30892858D01*
X18510000Y30750000D01*
X19224285Y30750000D01*
X19795714Y30892858D01*
X20081428Y31035715D01*
X20224285Y31178572D01*
X20367142Y31464286D01*
X20367142Y31750000D01*
X20224285Y32035715D01*
X20081428Y32178572D01*
X19795714Y32321429D01*
X19224285Y32464286D01*
X18510000Y32464286D01*
X17938571Y32321429D01*
X17652857Y32178572D01*
X17510000Y32035715D01*
X17367142Y31750000D01*
X20367142Y27892858D02*
X20367142Y29607143D01*
X20367142Y28750000D02*
X17367142Y28750000D01*
X17795714Y29035715D01*
X18081428Y29321429D01*
X18224285Y29607143D01*
X18652857Y26178572D02*
X18510000Y26464286D01*
X18367142Y26607143D01*
X18081428Y26750000D01*
X17938571Y26750000D01*
X17652857Y26607143D01*
X17510000Y26464286D01*
X17367142Y26178572D01*
X17367142Y25607143D01*
X17510000Y25321429D01*
X17652857Y25178572D01*
X17938571Y25035715D01*
X18081428Y25035715D01*
X18367142Y25178572D01*
X18510000Y25321429D01*
X18652857Y25607143D01*
X18652857Y26178572D01*
X18795714Y26464286D01*
X18938571Y26607143D01*
X19224285Y26750000D01*
X19795714Y26750000D01*
X20081428Y26607143D01*
X20224285Y26464286D01*
X20367142Y26178572D01*
X20367142Y25607143D01*
X20224285Y25321429D01*
X20081428Y25178572D01*
X19795714Y25035715D01*
X19224285Y25035715D01*
X18938571Y25178572D01*
X18795714Y25321429D01*
X18652857Y25607143D01*
X17224285Y21607143D02*
X21081428Y24178572D01*
X20367142Y19035715D02*
X20367142Y20750000D01*
X20367142Y19892858D02*
X17367142Y19892858D01*
X17795714Y20178572D01*
X18081428Y20464286D01*
X18224285Y20750000D01*
X20367142Y17607143D02*
X20367142Y17035715D01*
X20224285Y16750000D01*
X20081428Y16607143D01*
X19652857Y16321429D01*
X19081428Y16178572D01*
X17938571Y16178572D01*
X17652857Y16321429D01*
X17510000Y16464286D01*
X17367142Y16750000D01*
X17367142Y17321429D01*
X17510000Y17607143D01*
X17652857Y17750000D01*
X17938571Y17892858D01*
X18652857Y17892858D01*
X18938571Y17750000D01*
X19081428Y17607143D01*
X19224285Y17321429D01*
X19224285Y16750000D01*
X19081428Y16464286D01*
X18938571Y16321429D01*
X18652857Y16178572D01*
M02*
